<svg width="32" height="23" viewBox="0 0 32 23" fill="none" xmlns="http://www.w3.org/2000/svg">
<path d="M1.23524 1.90949C1.00318 1.90949 0.780621 1.84584 0.616526 1.73254C0.452432 1.61923 0.360245 1.46556 0.360245 1.30533C0.360245 1.14509 0.452432 0.991419 0.616526 0.878116C0.780621 0.764813 1.00318 0.701159 1.23524 0.701159L30.7647 0.699951C30.9968 0.699951 31.2194 0.763604 31.3835 0.876907C31.5476 0.990211 31.6397 1.14388 31.6397 1.30412C31.6397 1.46435 31.5476 1.61802 31.3835 1.73133C31.2194 1.84463 30.9968 1.90828 30.7647 1.90828L1.23524 1.90949ZM1.23524 12.1054C1.00318 12.1054 0.780621 12.0418 0.616526 11.9285C0.452432 11.8152 0.360245 11.6615 0.360245 11.5012C0.360245 11.341 0.452432 11.1873 0.616526 11.074C0.780621 10.9607 1.00318 10.8971 1.23524 10.8971L30.7647 10.8947C30.9968 10.8947 31.2194 10.9583 31.3835 11.0716C31.5476 11.1849 31.6397 11.3386 31.6397 11.4988C31.6397 11.6591 31.5476 11.8127 31.3835 11.926C31.2194 12.0393 30.9968 12.103 30.7647 12.103L1.23524 12.1054ZM1.23524 22.3013C1.00318 22.3013 0.780621 22.2377 0.616526 22.1244C0.452432 22.0111 0.360245 21.8574 0.360245 21.6972C0.360245 21.5369 0.452432 21.3833 0.616526 21.27C0.780621 21.1566 1.00318 21.093 1.23524 21.093L30.7647 21.0906C30.9968 21.0906 31.2194 21.1542 31.3835 21.2675C31.5476 21.3808 31.6397 21.5345 31.6397 21.6947C31.6397 21.855 31.5476 22.0087 31.3835 22.122C31.2194 22.2353 30.9968 22.2989 30.7647 22.2989L1.23524 22.3013Z" fill="#10172D"/>
</svg>
