<svg width="20" height="20" viewBox="0 0 20 20" fill="none" xmlns="http://www.w3.org/2000/svg">
<circle cx="10" cy="10" r="9.5" stroke="white"/>
<path d="M13.3994 7.64486C13.4283 7.67404 13.4511 7.70863 13.4666 7.74665C13.4821 7.78466 13.49 7.82536 13.4897 7.86642C13.4895 7.90747 13.4812 7.94808 13.4652 7.98592C13.4493 8.02376 13.4261 8.05809 13.3969 8.08694L8.76146 12.6703C8.70325 12.7278 8.6248 12.7602 8.54295 12.7605C8.4611 12.7609 8.3824 12.729 8.32375 12.6719L6.39667 10.7969C6.36675 10.7684 6.34277 10.7343 6.32614 10.6965C6.3095 10.6587 6.30053 10.6179 6.29974 10.5766C6.29895 10.5353 6.30637 10.4942 6.32155 10.4558C6.33674 10.4174 6.3594 10.3823 6.38821 10.3527C6.41703 10.3231 6.45143 10.2995 6.48943 10.2833C6.52743 10.267 6.56827 10.2585 6.60959 10.2582C6.65091 10.2578 6.69188 10.2657 6.73015 10.2813C6.76841 10.2969 6.8032 10.3199 6.8325 10.349L8.54 12.0103L12.9573 7.64236C12.9865 7.61348 13.0211 7.59064 13.0591 7.57514C13.0971 7.55963 13.1378 7.55177 13.1789 7.55201C13.2199 7.55224 13.2605 7.56056 13.2984 7.57649C13.3362 7.59242 13.3705 7.61565 13.3994 7.64486Z" fill="white"/>
<path d="M13.3994 7.64486C13.4283 7.67404 13.4511 7.70863 13.4666 7.74665C13.4821 7.78466 13.49 7.82536 13.4897 7.86642C13.4895 7.90747 13.4812 7.94808 13.4652 7.98592C13.4493 8.02376 13.4261 8.05809 13.3969 8.08694L8.76146 12.6703C8.70325 12.7278 8.6248 12.7602 8.54295 12.7605C8.4611 12.7609 8.3824 12.729 8.32375 12.6719L6.39667 10.7969C6.36675 10.7684 6.34277 10.7343 6.32614 10.6965C6.3095 10.6587 6.30053 10.6179 6.29974 10.5766C6.29895 10.5353 6.30637 10.4942 6.32155 10.4558C6.33674 10.4174 6.3594 10.3823 6.38821 10.3527C6.41703 10.3231 6.45143 10.2995 6.48943 10.2833C6.52743 10.267 6.56827 10.2585 6.60959 10.2582C6.65091 10.2578 6.69188 10.2657 6.73015 10.2813C6.76841 10.2969 6.8032 10.3199 6.8325 10.349L8.54 12.0103L12.9573 7.64236C12.9865 7.61348 13.0211 7.59064 13.0591 7.57514C13.0971 7.55963 13.1378 7.55177 13.1789 7.55201C13.2199 7.55224 13.2605 7.56056 13.2984 7.57649C13.3362 7.59242 13.3705 7.61565 13.3994 7.64486Z" stroke="white"/>
</svg>
