<svg width="20" height="20" viewBox="0 0 20 20" fill="none" xmlns="http://www.w3.org/2000/svg">
<circle cx="10" cy="10" r="9.5" stroke="#10172D"/>
<path d="M13.3994 7.64474C13.4283 7.67392 13.4511 7.70851 13.4666 7.74653C13.4821 7.78454 13.49 7.82524 13.4897 7.8663C13.4895 7.90735 13.4812 7.94796 13.4652 7.9858C13.4493 8.02364 13.4261 8.05796 13.3969 8.08682L8.76146 12.6702C8.70325 12.7277 8.6248 12.7601 8.54295 12.7604C8.4611 12.7607 8.3824 12.7289 8.32375 12.6718L6.39667 10.7968C6.36675 10.7683 6.34277 10.7342 6.32614 10.6964C6.3095 10.6585 6.30053 10.6178 6.29974 10.5765C6.29895 10.5352 6.30637 10.4941 6.32155 10.4557C6.33674 10.4172 6.3594 10.3822 6.38821 10.3526C6.41703 10.323 6.45143 10.2994 6.48943 10.2831C6.52743 10.2669 6.56827 10.2584 6.60959 10.258C6.65091 10.2577 6.69188 10.2655 6.73015 10.2811C6.76841 10.2967 6.8032 10.3198 6.8325 10.3489L8.54 12.0102L12.9573 7.64224C12.9865 7.61336 13.0211 7.59052 13.0591 7.57502C13.0971 7.55951 13.1378 7.55165 13.1789 7.55188C13.2199 7.55212 13.2605 7.56044 13.2984 7.57637C13.3362 7.5923 13.3705 7.61553 13.3994 7.64474Z" fill="black"/>
</svg>
