<svg width="17" height="17" viewBox="0 0 17 17" fill="none" xmlns="http://www.w3.org/2000/svg">
<path fill-rule="evenodd" clip-rule="evenodd" d="M16.5098 2.10982C16.5767 2.04288 16.6298 1.9634 16.666 1.87594C16.7023 1.78848 16.7209 1.69473 16.7209 1.60006C16.7209 1.50539 16.7023 1.41164 16.666 1.32418C16.6298 1.23672 16.5767 1.15724 16.5098 1.0903C16.4428 1.02336 16.3633 0.970256 16.2759 0.934026C16.1884 0.897797 16.0947 0.87915 16 0.87915C15.9053 0.87915 15.8116 0.897797 15.7241 0.934026C15.6367 0.970256 15.5572 1.02336 15.4902 1.0903L8.8 7.78198L2.10976 1.0903C2.04282 1.02336 1.96334 0.970256 1.87588 0.934026C1.78841 0.897797 1.69467 0.87915 1.6 0.87915C1.50533 0.87915 1.41158 0.897797 1.32412 0.934026C1.23665 0.970256 1.15718 1.02336 1.09024 1.0903C1.0233 1.15724 0.970194 1.23672 0.933965 1.32418C0.897736 1.41164 0.879089 1.50539 0.879089 1.60006C0.879089 1.69473 0.897736 1.78848 0.933965 1.87594C0.970194 1.9634 1.0233 2.04288 1.09024 2.10982L7.78192 8.80006L1.09024 15.4903C0.955042 15.6255 0.879089 15.8089 0.879089 16.0001C0.879089 16.1913 0.955042 16.3746 1.09024 16.5098C1.22544 16.645 1.4088 16.721 1.6 16.721C1.7912 16.721 1.97456 16.645 2.10976 16.5098L8.8 9.81814L15.4902 16.5098C15.6254 16.645 15.8088 16.721 16 16.721C16.1912 16.721 16.3746 16.645 16.5098 16.5098C16.645 16.3746 16.7209 16.1913 16.7209 16.0001C16.7209 15.8089 16.645 15.6255 16.5098 15.4903L9.81808 8.80006L16.5098 2.10982Z" fill="#10172D"/>
</svg>
