<svg width="20" height="21" viewBox="0 0 20 21" fill="none" xmlns="http://www.w3.org/2000/svg">
<path d="M16.2475 7.15766L10 13.2477L3.75253 7.15766C3.64092 7.04862 3.49107 6.98758 3.33503 6.98758C3.179 6.98758 3.02915 7.04862 2.91753 7.15766C2.86349 7.21062 2.82055 7.27382 2.79124 7.34358C2.76192 7.41334 2.74683 7.48824 2.74683 7.56391C2.74683 7.63958 2.76192 7.71448 2.79124 7.78424C2.82055 7.854 2.86349 7.9172 2.91753 7.97016L9.56379 14.4502C9.6805 14.5639 9.83704 14.6276 10 14.6276C10.163 14.6276 10.3196 14.5639 10.4363 14.4502L17.0825 7.97141C17.137 7.91841 17.1802 7.85505 17.2098 7.78506C17.2393 7.71507 17.2545 7.63988 17.2545 7.56391C17.2545 7.48794 17.2393 7.41274 17.2098 7.34276C17.1802 7.27277 17.137 7.2094 17.0825 7.15641C16.9709 7.04737 16.8211 6.98633 16.665 6.98633C16.509 6.98633 16.3592 7.04737 16.2475 7.15641V7.15766Z" fill="white"/>
</svg>
