<?xml version="1.0" encoding="UTF-8"?> <svg xmlns="http://www.w3.org/2000/svg" width="200" height="35" viewBox="0 0 200 35" fill="none"> <g clip-path="url(#clip0_1_227)"> <path d="M69.6014 0.0298846L56.3475 34.1581H63.3853L65.9853 27.479H75.2944L77.8644 20.8595H68.5554L73.2323 8.80103L83.0793 34.1581H90.1171L76.8783 0.0298846H69.6014ZM56.3624 0.0597692H32.4846V6.64933H41.1511V34.188H47.7407V6.64933H56.3624V0.0597692ZM12.1481 0.0597692C7.39644 0.0597692 3.09306 2.00227 0 5.15509L4.662 9.81711C6.55968 7.8746 9.20446 6.66427 12.1332 6.66427C17.9009 6.66427 22.5629 11.3412 22.5629 17.094C22.5629 22.8617 17.886 27.5238 12.1332 27.5238C9.20446 27.5238 6.54473 26.3135 4.662 24.3709L0 29.0479C3.09306 32.1858 7.39644 34.1432 12.1481 34.1432C21.5617 34.1432 29.1824 26.5077 29.1824 17.1089C29.1824 7.68036 21.5617 0.0597692 12.1481 0.0597692ZM21.6663 13.7768H7.8746L7.94932 20.3962H19.1113L21.6663 13.7768ZM176.544 0.0298846H169.879V34.1581H176.544V20.4113H190.603L193.174 13.7918H176.528V0.0298846H176.544ZM193.294 0.0298846L193.279 15.3607V34.1581H199.959V0.0298846H193.294ZM146.255 0C136.842 0 129.221 7.63552 129.221 17.0343C129.221 26.4479 136.857 34.0685 146.255 34.0685C155.669 34.0685 163.29 26.433 163.29 17.0343C163.29 7.63552 155.654 0 146.255 0ZM146.255 27.479C140.488 27.479 135.826 22.8021 135.826 17.0492C135.826 11.2815 140.503 6.61945 146.255 6.61945C152.008 6.61945 156.685 11.2964 156.685 17.0492C156.685 22.8021 152.008 27.479 146.255 27.479ZM106.673 0.0298846L93.4195 34.1581H100.457L110.304 8.80103L120.151 34.1581H127.189L113.95 0.0298846H106.673Z" fill="white"></path> </g> <defs> <clipPath id="clip0_1_227"> <rect width="200" height="34.188" fill="white"></rect> </clipPath> </defs> </svg> 