<?xml version="1.0" encoding="UTF-8"?> <svg xmlns="http://www.w3.org/2000/svg" width="200" height="59" viewBox="0 0 200 59" fill="none"> <g clip-path="url(#clip0_1_272)"> <mask id="mask0_1_272" style="mask-type:luminance" maskUnits="userSpaceOnUse" x="0" y="0" width="200" height="59"> <path d="M200 0H0V58.3333H200V0Z" fill="white"></path> </mask> <g mask="url(#mask0_1_272)"> <path fill-rule="evenodd" clip-rule="evenodd" d="M46.3635 13.4876V44.509L57.9575 55.904V24.8827L46.3635 13.4876ZM45.2894 45.5648H13.7346L25.3323 56.9637H56.8871L45.2894 45.5648ZM11.5703 45.5648V12.4432L0 1.05588V56.9637H23.1837L11.586 45.5648H11.5703ZM12.6329 11.3758H46.3519L57.9575 22.7671V0H1.0743L12.6485 11.3758H12.6329Z" fill="white"></path> <path fill-rule="evenodd" clip-rule="evenodd" d="M75.4432 28.9173C75.4432 34.8594 77.1566 37.1523 80.2501 37.1523C83.473 37.1523 85.0845 34.8402 85.0845 28.9173C85.0845 22.9942 83.4378 20.7206 80.2501 20.7206C77.0624 20.7206 75.4432 23.0135 75.4432 28.9173ZM90.9932 28.9173C90.9932 36.5821 86.9782 41.2062 80.2501 41.2062C73.522 41.2062 69.5618 36.7169 69.5618 28.9173C69.5618 21.291 73.5805 16.6667 80.2774 16.6667C86.9741 16.6667 91.0205 21.1215 91.0205 28.9173H90.9932Z" fill="white"></path> <path fill-rule="evenodd" clip-rule="evenodd" d="M111.341 19.2325L108.597 22.4388C107.445 21.3675 105.924 20.7644 104.339 20.7508C101.312 20.7508 99.1868 23.1477 99.1868 28.8819C99.1868 34.5196 101.284 36.9167 104.441 36.9167C106.323 36.9167 107.703 36.0033 109.079 34.9552L111.616 38.196C110.637 39.1552 109.475 39.9146 108.197 40.4304C106.918 40.9465 105.548 41.2085 104.166 41.2019C97.642 41.2019 93.282 36.8819 93.282 28.8704C93.282 21.0398 97.8851 16.6545 103.994 16.6545C107.224 16.6545 109.385 17.5986 111.341 19.2209V19.2325Z" fill="white"></path> <path fill-rule="evenodd" clip-rule="evenodd" d="M119.754 30.6077V40.6271H114.124V17.2435H119.754V26.284H126.894V17.2435H132.528V40.6271H126.894V30.6077H119.754Z" fill="white"></path> <path fill-rule="evenodd" clip-rule="evenodd" d="M141.277 28.9173C141.277 34.8594 142.994 37.1523 146.084 37.1523C149.314 37.1523 150.934 34.8402 150.934 28.9173C150.934 22.9942 149.279 20.7206 146.084 20.7206C142.888 20.7206 141.277 23.0096 141.277 28.9173ZM156.831 28.9173C156.831 36.5821 152.816 41.2062 146.08 41.2062C139.344 41.2062 135.376 36.7169 135.376 28.9173C135.376 21.291 139.391 16.6667 146.08 16.6667C152.769 16.6667 156.831 21.1215 156.831 28.9173Z" fill="white"></path> <path fill-rule="evenodd" clip-rule="evenodd" d="M167.369 36.6154C170.011 36.6154 171.905 36.0721 171.905 33.5056C171.905 31.1433 170.227 30.2648 167.785 30.2648H165.314V36.6117L167.369 36.6154ZM165.314 26.596H167.408C169.761 26.596 170.976 25.7175 170.976 23.7598C170.976 21.8023 169.674 21.1625 166.957 21.1625H165.314V26.596ZM177.704 33.814C177.704 39.151 173.309 40.6308 167.334 40.6308H159.68V17.2435H166.408C172.791 17.2435 176.704 18.8273 176.704 23.2165C176.704 26.1877 174.544 27.7406 172.34 28.2454C174.987 28.7502 177.696 30.0335 177.696 33.81L177.704 33.814Z" fill="white"></path> <path fill-rule="evenodd" clip-rule="evenodd" d="M189.047 21.259L186.545 31.5865H191.556L189.047 21.259ZM185.585 35.5865L184.381 40.5962H178.562L185.718 17.2435H192.552L199.735 40.6271H193.752L192.517 35.6173L185.585 35.5865Z" fill="white"></path> </g> </g> <defs> <clipPath id="clip0_1_272"> <rect width="200" height="58.3333" fill="white"></rect> </clipPath> </defs> </svg> 