<svg width="335" height="31" viewBox="0 0 335 31" fill="none" xmlns="http://www.w3.org/2000/svg">
<path d="M38.3543 29.5146C37.3966 29.5441 36.4387 29.4624 35.5013 29.2712C35.2243 29.2203 34.9641 29.1064 34.7421 28.9391C34.5201 28.7718 34.3429 28.5558 34.2252 28.3092C33.9701 27.6314 33.8437 26.915 33.852 26.1941L32.901 3.80313C32.8709 2.45874 33.232 1.58373 34.0025 1.18389C35.1424 0.720613 36.3796 0.522103 37.614 0.604417C37.6802 0.604417 37.7163 0.505905 37.7163 0.314678C37.7163 0.12345 37.6802 0.024939 37.614 0.024939C37.0121 0.024939 36.4463 0.0249313 35.9166 0.0712895C35.3869 0.117648 34.6826 0.12344 33.8159 0.12344C33.432 0.12581 33.0482 0.108403 32.6662 0.0712895C32.3291 0.0423156 32.0643 0.024939 31.9138 0.024939C31.6071 0.0427945 31.316 0.161425 31.0892 0.361028C30.797 0.596107 30.5662 0.893797 30.415 1.23024L19.2013 25.9218L7.95136 2.5051C7.63307 1.77371 7.22918 1.07964 6.74752 0.436363C6.60971 0.29039 6.43995 0.175678 6.25051 0.100522C6.06106 0.0253648 5.85665 -0.00836342 5.65202 0.00175499C5.44737 0.00175499 5.14641 0.00174721 4.74914 0.0481054C4.35187 0.0944636 3.91247 0.100256 3.44899 0.100256C3.08182 0.100256 2.61835 0.100258 2.04653 0.0481054C1.4747 -0.00404757 0.951034 0.00175499 0.45144 0.00175499C0.37921 0.00175499 0.349106 0.100266 0.349106 0.291494C0.349106 0.482721 0.37921 0.581232 0.45144 0.581232C1.21189 0.557731 1.9681 0.699158 2.6641 0.995062C3.36009 1.29097 3.97806 1.73376 4.47226 2.29068L3.99674 25.0815C3.96865 26.7234 3.66167 27.8708 3.0758 28.5236C2.48994 29.1765 1.49676 29.5068 0.0962911 29.5146C0.0300799 29.5146 0 29.6073 0 29.8043C0 30.0013 0.0300799 30.0882 0.0962911 30.0882C0.764423 30.0882 1.46266 30.0882 2.19701 30.0419C2.93135 29.9955 3.70181 29.9955 4.49635 29.9955C5.42932 29.9955 6.30211 29.9955 7.07256 30.0419C7.84302 30.0882 8.61348 30.0882 9.34782 30.0882C9.41403 30.0882 9.45014 29.9955 9.45014 29.8043C9.45014 29.6131 9.41403 29.5146 9.34782 29.5146C7.6785 29.5146 6.55491 29.1842 5.97706 28.5236C5.39922 27.863 5.12233 26.7157 5.14641 25.0815L5.54971 3.90165C5.54971 3.93641 5.58581 3.96538 5.59785 4.00015L17.7988 29.7521C17.8464 29.8233 17.9143 29.8797 17.9944 29.9146C18.0744 29.9496 18.1633 29.9616 18.2502 29.9492C18.485 29.9492 18.6174 29.8796 18.6535 29.7521L30.3548 3.78574L31.2036 26.1941C31.2678 27.5733 31.0671 28.4715 30.6016 28.8887C30.1361 29.3059 29.0607 29.5146 27.3753 29.5146C27.3091 29.5146 27.273 29.6073 27.273 29.8043C27.273 30.0013 27.3091 30.0882 27.3753 30.0882C28.0736 30.0882 28.8561 30.0882 29.7288 30.0419C30.6016 29.9955 31.5346 29.9955 32.5759 29.9955C33.6172 29.9955 34.7188 29.9955 35.6999 30.0419C36.681 30.0882 37.5779 30.0882 38.3784 30.0882C38.4748 30.0882 38.5289 29.9955 38.5289 29.8043C38.5289 29.6131 38.4507 29.5146 38.3543 29.5146Z" fill="#10172D"/>
<path d="M84.1814 29.5151C83.4663 29.5223 82.7612 29.3601 82.1334 29.0441C81.3769 28.5951 80.7449 27.9887 80.2883 27.2737C79.4992 26.1023 78.8004 24.8811 78.1971 23.6192L66.3453 0.143374C66.3145 0.0469056 66.2223 0.00150884 66.0686 0.00150884C66.0045 -0.0041181 65.94 0.00605591 65.8817 0.0309832C65.8233 0.0559106 65.7732 0.0946957 65.7364 0.143374L55.0532 23.8575C54.5357 25.0736 53.8953 26.2421 53.1404 27.3474C52.6692 28.057 52.0085 28.6432 51.2215 29.0498C50.4724 29.3764 49.6511 29.5376 48.8228 29.5208C48.6875 29.5208 48.6199 29.6116 48.6199 29.8045C48.6199 29.9974 48.6875 30.0826 48.8228 30.0826C49.8438 30.0826 50.7233 30.0826 51.4552 29.9918C52.1871 29.901 53.1466 29.8953 54.3397 29.8953C55.6313 29.8953 56.7076 29.9294 57.5564 29.9918C58.4051 30.0542 59.3462 30.0826 60.3671 30.0826C60.5393 30.0826 60.6254 29.9918 60.6254 29.8045C60.6254 29.6172 60.5393 29.5208 60.3671 29.5208C58.0546 29.5208 56.5354 29.1293 55.822 28.3405C55.1085 27.5517 55.2069 26.2012 56.0249 24.2888L65.2505 3.86025L76.475 26.1331C77.1229 27.4496 77.2008 28.3442 76.7087 28.8171C76.2167 29.29 75.0153 29.5265 73.1046 29.5265C72.9693 29.5265 72.9016 29.6172 72.9016 29.8102C72.9016 30.0031 72.9693 30.0882 73.1046 30.0882C74.021 30.0882 74.8698 30.0883 75.6324 29.9975C76.3951 29.9067 77.3115 29.901 78.3693 29.901C79.2858 29.901 80.2514 29.935 81.2539 29.9975C82.2564 30.0599 83.2404 30.0882 84.1938 30.0882C84.3291 30.0882 84.3967 29.9974 84.3967 29.8102C84.3967 29.6229 84.3168 29.5151 84.1814 29.5151Z" fill="#10172D"/>
<path d="M129.209 0.018846C128.577 0.018846 127.879 0.0188488 127.109 0.0947876C126.339 0.170726 125.581 0.164882 124.811 0.164882C124.04 0.164882 123.222 0.164885 122.536 0.0947876C121.85 0.0246903 121.183 0.018846 120.515 0.018846C120.449 0.018846 120.412 0.118151 120.412 0.310918C120.412 0.503686 120.449 0.60299 120.515 0.60299C121.911 0.60299 122.877 0.941789 123.415 1.6194C123.944 2.30285 124.215 3.46531 124.215 5.12428V26.3579L104.469 2.54818C103.934 1.94193 103.464 1.28429 103.067 0.585467C103.003 0.406755 102.881 0.253077 102.719 0.147679C102.558 0.0422821 102.365 -0.00909755 102.17 0.00132236C101.972 0.00132236 101.659 0.00131452 101.244 0.0480461C100.829 0.0947776 100.389 0.100617 99.9201 0.100617C99.4509 0.100617 98.9214 0.100619 98.3198 0.0480461C97.7181 -0.00452693 97.1164 0.00132236 96.575 0.00132236C96.4727 0.00132236 96.4245 0.100627 96.4245 0.293395C96.4245 0.486162 96.4727 0.585467 96.575 0.585467C97.4625 0.610194 98.3294 0.851234 99.0959 1.28643C99.4783 1.49772 99.8389 1.7442 100.173 2.02246V25.2831C100.173 26.9382 99.9141 28.0948 99.3967 28.7529C98.8793 29.411 97.8886 29.744 96.4245 29.7518C96.3523 29.7518 96.3223 29.8453 96.3223 30.0439C96.3223 30.2425 96.3223 30.3301 96.4245 30.3301C97.0864 30.3301 97.7903 30.3301 98.5243 30.2833C99.2583 30.2366 100.022 30.2366 100.823 30.2366C101.623 30.2366 102.411 30.2366 103.097 30.2833C103.783 30.3301 104.433 30.3301 105.07 30.3301C105.167 30.3301 105.221 30.2366 105.221 30.0439C105.221 29.8511 105.167 29.7518 105.07 29.7518C103.666 29.7518 102.684 29.4188 102.122 28.7529C101.561 28.087 101.276 26.9304 101.268 25.2831V3.06223C101.545 3.34846 101.827 3.64636 102.122 3.99685L124.714 30.9785C124.829 31.0072 124.949 31.0072 125.063 30.9785C125.232 30.9785 125.31 30.9201 125.31 30.8558V5.11843C125.31 3.46531 125.605 2.30284 126.188 1.61355C126.772 0.924259 127.777 0.597143 129.197 0.597143C129.299 0.597143 129.347 0.497839 129.347 0.305071C129.347 0.112303 129.311 0.018846 129.209 0.018846Z" fill="#10172D"/>
<path d="M171.176 4.69194C169.832 3.23826 168.204 2.07364 166.392 1.26969C164.386 0.397547 162.216 -0.0347402 160.028 0.00218071C158.019 0.0101271 156.023 0.332872 154.115 0.958569C152.133 1.58995 150.278 2.56517 148.636 3.83925C146.957 5.14442 145.588 6.80289 144.627 8.69609C143.578 10.8052 143.058 13.1358 143.111 15.4887C143.097 17.526 143.464 19.5481 144.193 21.4517C144.892 23.2824 145.935 24.9639 147.265 26.4065C148.613 27.853 150.251 29.0013 152.073 29.7769C154.055 30.6141 156.191 31.0301 158.344 30.9983C160.558 31.0175 162.755 30.6086 164.812 29.7942C166.799 29.0111 168.623 27.8684 170.193 26.4238C171.737 25.0025 172.987 23.2938 173.872 21.3941C174.776 19.4444 175.234 17.3193 175.214 15.1719C175.215 13.2584 174.866 11.3608 174.184 9.5718C173.503 7.76905 172.482 6.11269 171.176 4.69194ZM170.522 23.9061C169.555 25.8302 168.045 27.4319 166.177 28.5152C164.314 29.5601 162.207 30.0967 160.068 30.0707C158.107 30.0964 156.167 29.6705 154.398 28.8263C152.702 27.999 151.203 26.8204 150.002 25.3694C148.74 23.8326 147.778 22.0738 147.167 20.1842C146.498 18.1542 146.166 16.0292 146.183 13.8928C146.183 9.93284 147.225 6.80636 149.307 4.51334C151.39 2.22032 154.283 1.06803 157.985 1.0565C160.608 0.995765 163.194 1.68345 165.437 3.03841C167.553 4.36851 169.258 6.25721 170.36 8.49442C171.567 10.9937 172.161 13.742 172.096 16.5142C172.183 19.0702 171.639 21.6085 170.511 23.9061H170.522Z" fill="#10172D"/>
<path d="M221.835 29.5173C220.254 29.4569 218.731 28.9212 217.473 27.9831C215.522 26.5303 213.778 24.8293 212.287 22.9252C210.354 20.6182 208.01 17.4885 205.256 13.536C205.968 13.1635 206.634 12.7126 207.242 12.1922C208.17 11.4057 208.928 10.4447 209.47 9.36618C210.004 8.31867 210.281 7.16316 210.277 5.99226C210.314 5.15671 210.149 4.32446 209.796 3.56293C209.442 2.8014 208.911 2.13204 208.244 1.60909C206.896 0.536368 204.914 0 202.297 0C201.578 0 200.658 0.0519061 199.533 0.144184C198.407 0.236461 197.417 0.288367 196.586 0.288367C195.543 0.288367 194.541 0.28837 193.574 0.219162C192.607 0.149954 191.753 0.144184 191.004 0.144184C190.904 0.144184 190.857 0.242228 190.857 0.432551C190.857 0.622873 190.904 0.720918 191.004 0.720918C191.943 0.688564 192.883 0.777763 193.798 0.986211C194.067 1.04031 194.319 1.155 194.535 1.32118C194.751 1.48736 194.925 1.70046 195.042 1.94359C195.289 2.60987 195.397 3.31778 195.36 4.02561V26.2126C195.397 26.9299 195.281 27.647 195.018 28.3177C194.892 28.5645 194.71 28.7795 194.485 28.9456C194.26 29.1118 193.998 29.2245 193.721 29.275C192.795 29.4641 191.85 29.5455 190.904 29.5173C190.839 29.5173 190.81 29.6096 190.81 29.8056C190.81 30.0017 190.81 30.0882 190.904 30.0882C191.688 30.0882 192.572 30.0882 193.55 30.0421C194.529 29.9959 195.543 29.9959 196.586 29.9959C197.729 29.9959 198.766 29.9959 199.698 30.0421C200.629 30.0882 201.466 30.0882 202.267 30.0882C202.362 30.0882 202.415 29.996 202.415 29.8056C202.415 29.6153 202.362 29.5173 202.267 29.5173C201.322 29.5455 200.376 29.4641 199.45 29.275C199.177 29.2286 198.921 29.1169 198.703 28.9498C198.485 28.7828 198.312 28.5656 198.201 28.3177C197.975 27.6389 197.875 26.9259 197.906 26.2126V4.12365C197.858 3.29632 197.966 2.46738 198.224 1.6783C198.313 1.4572 198.455 1.26064 198.639 1.10581C198.823 0.950978 199.043 0.842593 199.279 0.790123C199.908 0.666526 200.548 0.610438 201.189 0.622865C202.304 0.60287 203.409 0.833736 204.419 1.29765C205.4 1.77468 206.199 2.54679 206.7 3.50078C207.326 4.78382 207.619 6.19816 207.554 7.61866C207.554 9.79487 207.032 11.3694 205.986 12.3421C205.04 13.1268 203.864 13.5991 202.627 13.6917L203.081 14.4357L203.051 14.4933C205.173 17.6308 207.098 20.3472 208.827 22.6426C210.242 24.571 211.78 26.4106 213.43 28.1504C214.703 29.4423 215.617 30.0882 216.171 30.0882H221.853C221.947 30.0882 222 29.996 222 29.8056C222 29.6153 221.953 29.5173 221.835 29.5173Z" fill="#10172D"/>
<path d="M66.5793 13.8808L71.3527 18.6303C70.1773 18.4112 69.0941 17.8415 68.2431 16.9948C67.3921 16.1481 66.8126 15.0633 66.5793 13.8808ZM66.0496 12.7647C66.0549 13.6093 66.2254 14.4445 66.5512 15.2226C66.877 16.0006 67.3517 16.7062 67.9481 17.299C68.5446 17.8918 69.251 18.3602 70.0271 18.6772C70.8032 18.9943 71.6337 19.1539 72.471 19.1468L66.0496 12.7647Z" fill="#10172D"/>
<path d="M65.5298 13.8704C65.3096 15.0393 64.7366 16.1168 63.8848 16.9636C63.0329 17.8104 61.9414 18.3875 60.7511 18.6205L65.5298 13.8704ZM66.0495 12.7647L59.6282 19.1471C61.3434 19.1331 62.9829 18.4533 64.1868 17.2567C65.3907 16.0601 66.0607 14.4445 66.0495 12.7647Z" fill="#10172D"/>
<path d="M71.3491 18.9197L66.5748 25.0271C66.7933 23.5233 67.3652 22.137 68.2166 21.0479C69.0679 19.9588 70.1593 19.2174 71.3491 18.9197ZM72.471 18.2428C70.7574 18.2587 69.1188 19.1309 67.9149 20.668C66.711 22.205 66.0401 24.2814 66.0497 26.4412L72.471 18.2353V18.2428Z" fill="#10172D"/>
<path d="M63.487 21.2157C64.5378 22.2313 65.2569 23.6307 65.5253 25.1825L60.7416 19.7393C61.7517 19.9498 62.6974 20.4584 63.487 21.2157ZM63.7521 20.8483C62.5955 19.7346 61.1339 19.1318 59.6282 19.1474L66.0497 26.4412C66.0454 25.3684 65.8375 24.3098 65.4405 23.3399C65.0435 22.37 64.4672 21.5126 63.7521 20.8279V20.8483Z" fill="#10172D"/>
<path d="M235.301 13.674C234.84 13.674 234.42 13.5845 234.038 13.4055C233.657 13.2232 233.354 12.9614 233.129 12.62C232.903 12.2753 232.79 11.8577 232.79 11.3672C232.79 10.9893 232.862 10.6712 233.004 10.4126C233.147 10.1541 233.349 9.942 233.611 9.77628C233.873 9.61056 234.183 9.47964 234.54 9.38352C234.898 9.28741 235.293 9.21283 235.724 9.1598C236.151 9.10677 236.513 9.06037 236.808 9.0206C237.106 8.98082 237.333 8.91785 237.489 8.83168C237.644 8.7455 237.722 8.6063 237.722 8.41406V8.23509C237.722 7.71473 237.567 7.3054 237.255 7.0071C236.947 6.70549 236.503 6.55469 235.923 6.55469C235.372 6.55469 234.923 6.67566 234.575 6.91761C234.231 7.15956 233.989 7.4446 233.849 7.77273L233.009 7.46946C233.182 7.05185 233.42 6.71875 233.725 6.47017C234.03 6.21828 234.371 6.03764 234.749 5.92827C235.127 5.81558 235.51 5.75923 235.898 5.75923C236.189 5.75923 236.493 5.79735 236.808 5.87358C237.126 5.94981 237.421 6.08239 237.692 6.27131C237.964 6.45691 238.185 6.71709 238.354 7.05185C238.523 7.38329 238.607 7.80421 238.607 8.31463V13.5H237.722V12.2919H237.668C237.562 12.5173 237.404 12.736 237.195 12.9482C236.987 13.1603 236.725 13.3343 236.41 13.4702C236.095 13.6061 235.725 13.674 235.301 13.674ZM235.42 12.8636C235.891 12.8636 236.299 12.7592 236.643 12.5504C236.988 12.3416 237.253 12.0649 237.439 11.7202C237.628 11.3722 237.722 10.9893 237.722 10.5717V9.46804C237.656 9.53101 237.545 9.58736 237.389 9.63707C237.237 9.68679 237.059 9.73153 236.857 9.77131C236.658 9.80776 236.46 9.83925 236.261 9.86577C236.062 9.89228 235.883 9.91548 235.724 9.93537C235.293 9.9884 234.925 10.0713 234.62 10.1839C234.315 10.2966 234.081 10.4524 233.919 10.6513C233.757 10.8468 233.675 11.0987 233.675 11.407C233.675 11.871 233.841 12.2306 234.173 12.4858C234.504 12.7377 234.92 12.8636 235.42 12.8636ZM245.5 5.86364V6.69886H241.846V13.5H240.961V5.86364H245.5ZM250.051 13.6591C249.338 13.6591 248.722 13.4934 248.201 13.1619C247.681 12.8272 247.278 12.3648 246.993 11.7749C246.711 11.1816 246.57 10.4988 246.57 9.72656C246.57 8.95762 246.711 8.27486 246.993 7.67827C247.278 7.07836 247.671 6.60937 248.171 6.27131C248.675 5.92992 249.257 5.75923 249.916 5.75923C250.331 5.75923 250.73 5.83546 251.115 5.98793C251.499 6.13707 251.844 6.36742 252.149 6.67898C252.457 6.98722 252.7 7.37666 252.879 7.8473C253.058 8.31463 253.148 8.86813 253.148 9.50781V9.94531H247.182V9.16477H252.243C252.243 8.67424 252.144 8.23343 251.945 7.84233C251.749 7.44792 251.476 7.13636 251.124 6.90767C250.776 6.67898 250.374 6.56463 249.916 6.56463C249.432 6.56463 249.007 6.69389 248.639 6.95241C248.271 7.21094 247.982 7.55232 247.774 7.97656C247.568 8.4008 247.464 8.86482 247.46 9.36861V9.83594C247.46 10.4425 247.565 10.9728 247.774 11.4268C247.986 11.8776 248.286 12.2273 248.673 12.4759C249.061 12.7244 249.52 12.8487 250.051 12.8487C250.412 12.8487 250.728 12.7924 251 12.6797C251.275 12.567 251.506 12.4162 251.691 12.2273C251.88 12.035 252.023 11.8246 252.119 11.5959L252.959 11.8693C252.843 12.1908 252.652 12.4875 252.387 12.7592C252.125 13.031 251.797 13.2498 251.403 13.4155C251.012 13.5779 250.561 13.6591 250.051 13.6591ZM260.254 9.26918V10.1044H255.764V9.26918H260.254ZM255.983 5.86364V13.5H255.098V5.86364H255.983ZM260.905 5.86364V13.5H260.02V5.86364H260.905ZM262.191 6.69886V5.86364H268.157V6.69886H265.632V13.5H264.747V6.69886H262.191ZM272.614 13.6591C271.931 13.6591 271.336 13.4884 270.829 13.147C270.326 12.8056 269.934 12.3383 269.656 11.745C269.378 11.1518 269.238 10.4756 269.238 9.71662C269.238 8.95099 269.379 8.26989 269.661 7.6733C269.946 7.0767 270.34 6.60937 270.844 6.27131C271.348 5.92992 271.933 5.75923 272.599 5.75923C273.11 5.75923 273.572 5.85866 273.986 6.05753C274.401 6.25308 274.742 6.52983 275.01 6.88778C275.282 7.24242 275.453 7.65672 275.523 8.13068H274.628C274.535 7.69981 274.311 7.33191 273.956 7.02699C273.605 6.71875 273.158 6.56463 272.614 6.56463C272.127 6.56463 271.696 6.69721 271.322 6.96236C270.947 7.22419 270.654 7.59044 270.442 8.06108C270.233 8.52841 270.128 9.07031 270.128 9.68679C270.128 10.3066 270.231 10.8551 270.437 11.3324C270.642 11.8063 270.93 12.1776 271.302 12.446C271.676 12.7145 272.114 12.8487 272.614 12.8487C272.952 12.8487 273.26 12.7857 273.539 12.6598C273.821 12.5305 274.056 12.3482 274.245 12.1129C274.437 11.8776 274.566 11.5975 274.633 11.2727H275.528C275.461 11.7334 275.297 12.1444 275.035 12.5057C274.777 12.8636 274.44 13.1454 274.026 13.3509C273.615 13.5563 273.144 13.6591 272.614 13.6591ZM276.793 6.69886V5.86364H282.759V6.69886H280.233V13.5H279.348V6.69886H276.793ZM284.629 13.5V5.86364H287.637C288.449 5.86364 289.089 6.0393 289.556 6.39062C290.027 6.74195 290.262 7.21591 290.262 7.8125C290.262 8.26657 290.131 8.6295 289.869 8.90128C289.607 9.17306 289.256 9.36529 288.815 9.47798C289.11 9.5277 289.384 9.63542 289.636 9.80114C289.891 9.96686 290.098 10.1856 290.257 10.4574C290.416 10.7292 290.496 11.054 290.496 11.4318C290.496 11.8295 290.396 12.1842 290.197 12.4957C289.999 12.8073 289.719 13.0526 289.357 13.2315C288.996 13.4105 288.568 13.5 288.075 13.5H284.629ZM285.474 12.6797H288.075C288.542 12.6797 288.911 12.5604 289.183 12.3217C289.455 12.0798 289.591 11.7583 289.591 11.3572C289.591 10.9297 289.462 10.5883 289.203 10.3331C288.948 10.0746 288.605 9.94531 288.174 9.94531H285.474V12.6797ZM285.474 9.1598H287.692C288.036 9.1598 288.335 9.10677 288.587 9.00071C288.839 8.89465 289.032 8.7455 289.168 8.55327C289.308 8.35772 289.375 8.12902 289.372 7.86719C289.372 7.49266 289.22 7.20265 288.915 6.99716C288.61 6.78835 288.184 6.68395 287.637 6.68395H285.474V9.1598ZM295.404 13.6591C294.744 13.6591 294.161 13.4917 293.654 13.157C293.15 12.8222 292.756 12.3598 292.471 11.7699C292.186 11.1766 292.043 10.4922 292.043 9.71662C292.043 8.93442 292.186 8.24669 292.471 7.65341C292.756 7.05682 293.15 6.5928 293.654 6.26136C294.161 5.92661 294.744 5.75923 295.404 5.75923C296.064 5.75923 296.645 5.92661 297.149 6.26136C297.653 6.59612 298.047 7.06013 298.332 7.65341C298.621 8.24669 298.765 8.93442 298.765 9.71662C298.765 10.4922 298.622 11.1766 298.337 11.7699C298.052 12.3598 297.656 12.8222 297.149 13.157C296.645 13.4917 296.064 13.6591 295.404 13.6591ZM295.404 12.8487C295.934 12.8487 296.383 12.7062 296.751 12.4212C297.119 12.1361 297.398 11.7566 297.586 11.2827C297.779 10.8087 297.875 10.2867 297.875 9.71662C297.875 9.14654 297.779 8.62287 297.586 8.1456C297.398 7.66832 297.119 7.28551 296.751 6.99716C296.383 6.70881 295.934 6.56463 295.404 6.56463C294.877 6.56463 294.428 6.70881 294.057 6.99716C293.689 7.28551 293.409 7.66832 293.216 8.1456C293.028 8.62287 292.933 9.14654 292.933 9.71662C292.933 10.2867 293.028 10.8087 293.216 11.2827C293.409 11.7566 293.689 12.1361 294.057 12.4212C294.425 12.7062 294.874 12.8487 295.404 12.8487ZM238.324 24.2692V25.1044H233.835V24.2692H238.324ZM234.053 20.8636V28.5H233.168V20.8636H234.053ZM238.975 20.8636V28.5H238.09V20.8636H238.975ZM244.418 28.6591C243.705 28.6591 243.089 28.4934 242.568 28.1619C242.048 27.8272 241.645 27.3648 241.36 26.7749C241.079 26.1816 240.938 25.4988 240.938 24.7266C240.938 23.9576 241.079 23.2749 241.36 22.6783C241.645 22.0784 242.038 21.6094 242.539 21.2713C243.042 20.9299 243.624 20.7592 244.284 20.7592C244.698 20.7592 245.097 20.8355 245.482 20.9879C245.866 21.1371 246.211 21.3674 246.516 21.679C246.824 21.9872 247.068 22.3767 247.247 22.8473C247.426 23.3146 247.515 23.8681 247.515 24.5078V24.9453H241.549V24.1648H246.61C246.61 23.6742 246.511 23.2334 246.312 22.8423C246.116 22.4479 245.843 22.1364 245.492 21.9077C245.144 21.679 244.741 21.5646 244.284 21.5646C243.8 21.5646 243.374 21.6939 243.006 21.9524C242.638 22.2109 242.35 22.5523 242.141 22.9766C241.935 23.4008 241.831 23.8648 241.828 24.3686V24.8359C241.828 25.4425 241.932 25.9728 242.141 26.4268C242.353 26.8776 242.653 27.2273 243.041 27.4759C243.428 27.7244 243.887 27.8487 244.418 27.8487C244.779 27.8487 245.096 27.7924 245.367 27.6797C245.642 27.567 245.873 27.4162 246.058 27.2273C246.247 27.035 246.39 26.8246 246.486 26.5959L247.326 26.8693C247.21 27.1908 247.02 27.4875 246.754 27.7592C246.493 28.031 246.164 28.2498 245.77 28.4155C245.379 28.5779 244.928 28.6591 244.418 28.6591ZM248.56 30.6726V27.6648H249.222C249.387 27.4792 249.531 27.2786 249.654 27.0632C249.777 26.8478 249.883 26.6025 249.972 26.3274C250.065 26.049 250.143 25.7259 250.206 25.358C250.269 24.9867 250.322 24.5542 250.365 24.0604L250.643 20.8636H255.163V27.6648H256.296V30.6726H255.411V28.5H249.45V30.6726H248.56ZM250.241 27.6648H254.278V21.6989H251.469L251.24 24.0604C251.161 24.8625 251.048 25.5618 250.902 26.1584C250.756 26.755 250.536 27.2571 250.241 27.6648ZM257.983 28.5V20.8636H260.991C261.803 20.8636 262.442 21.0393 262.91 21.3906C263.38 21.742 263.616 22.2159 263.616 22.8125C263.616 23.2666 263.485 23.6295 263.223 23.9013C262.961 24.1731 262.61 24.3653 262.169 24.478C262.464 24.5277 262.737 24.6354 262.989 24.8011C263.244 24.9669 263.452 25.1856 263.611 25.4574C263.77 25.7292 263.849 26.054 263.849 26.4318C263.849 26.8295 263.75 27.1842 263.551 27.4957C263.352 27.8073 263.072 28.0526 262.711 28.2315C262.349 28.4105 261.922 28.5 261.428 28.5H257.983ZM258.828 27.6797H261.428C261.895 27.6797 262.265 27.5604 262.537 27.3217C262.809 27.0798 262.944 26.7583 262.944 26.3572C262.944 25.9297 262.815 25.5883 262.557 25.3331C262.301 25.0746 261.958 24.9453 261.528 24.9453H258.828V27.6797ZM258.828 24.1598H261.045C261.39 24.1598 261.688 24.1068 261.94 24.0007C262.192 23.8946 262.386 23.7455 262.522 23.5533C262.661 23.3577 262.729 23.129 262.726 22.8672C262.726 22.4927 262.573 22.2027 262.268 21.9972C261.963 21.7884 261.537 21.6839 260.991 21.6839H258.828V24.1598ZM266.674 27.2422L270.706 20.8636H271.765V28.5H270.88V22.1214L266.863 28.5H265.789V20.8636H266.674V27.2422ZM273.625 28.5L276.995 24.642L273.669 20.8636H274.748L277.676 24.2592H278.189V20.8636H279.078V24.2592H279.581L282.509 20.8636H283.588L280.272 24.642L283.632 28.5H282.539L279.566 25.0945H279.078V28.5H278.189V25.0945H277.701L274.718 28.5H273.625ZM286.376 27.2422L290.407 20.8636H291.466V28.5H290.581V22.1214L286.564 28.5H285.491V20.8636H286.376V27.2422ZM297.795 27.2621L300.664 20.8636H301.524L298.148 28.5H297.442L294.106 20.8636H294.952L297.795 27.2621ZM294.688 20.8636V28.5H293.803V20.8636H294.688ZM300.903 28.5V20.8636H301.787V28.5H300.903ZM307.107 28.6591C306.448 28.6591 305.864 28.4917 305.357 28.157C304.853 27.8222 304.459 27.3598 304.174 26.7699C303.889 26.1766 303.746 25.4922 303.746 24.7166C303.746 23.9344 303.889 23.2467 304.174 22.6534C304.459 22.0568 304.853 21.5928 305.357 21.2614C305.864 20.9266 306.448 20.7592 307.107 20.7592C307.767 20.7592 308.348 20.9266 308.852 21.2614C309.356 21.5961 309.75 22.0601 310.035 22.6534C310.324 23.2467 310.468 23.9344 310.468 24.7166C310.468 25.4922 310.325 26.1766 310.04 26.7699C309.755 27.3598 309.359 27.8222 308.852 28.157C308.348 28.4917 307.767 28.6591 307.107 28.6591ZM307.107 27.8487C307.637 27.8487 308.086 27.7062 308.454 27.4212C308.822 27.1361 309.101 26.7566 309.29 26.2827C309.482 25.8087 309.578 25.2867 309.578 24.7166C309.578 24.1465 309.482 23.6229 309.29 23.1456C309.101 22.6683 308.822 22.2855 308.454 21.9972C308.086 21.7088 307.637 21.5646 307.107 21.5646C306.58 21.5646 306.131 21.7088 305.76 21.9972C305.392 22.2855 305.112 22.6683 304.92 23.1456C304.731 23.6229 304.636 24.1465 304.636 24.7166C304.636 25.2867 304.731 25.8087 304.92 26.2827C305.112 26.7566 305.392 27.1361 305.76 27.4212C306.128 27.7062 306.577 27.8487 307.107 27.8487ZM315.393 28.6591C314.711 28.6591 314.116 28.4884 313.609 28.147C313.105 27.8056 312.714 27.3383 312.435 26.745C312.157 26.1518 312.018 25.4756 312.018 24.7166C312.018 23.951 312.159 23.2699 312.44 22.6733C312.725 22.0767 313.12 21.6094 313.624 21.2713C314.127 20.9299 314.712 20.7592 315.379 20.7592C315.889 20.7592 316.351 20.8587 316.766 21.0575C317.18 21.2531 317.521 21.5298 317.79 21.8878C318.062 22.2424 318.232 22.6567 318.302 23.1307H317.407C317.314 22.6998 317.09 22.3319 316.736 22.027C316.384 21.7187 315.937 21.5646 315.393 21.5646C314.906 21.5646 314.475 21.6972 314.101 21.9624C313.726 22.2242 313.433 22.5904 313.221 23.0611C313.012 23.5284 312.908 24.0703 312.908 24.6868C312.908 25.3066 313.01 25.8551 313.216 26.3324C313.421 26.8063 313.71 27.1776 314.081 27.446C314.455 27.7145 314.893 27.8487 315.393 27.8487C315.732 27.8487 316.04 27.7857 316.318 27.6598C316.6 27.5305 316.835 27.3482 317.024 27.1129C317.216 26.8776 317.346 26.5975 317.412 26.2727H318.307C318.241 26.7334 318.076 27.1444 317.815 27.5057C317.556 27.8636 317.22 28.1454 316.805 28.3509C316.394 28.5563 315.924 28.6591 315.393 28.6591ZM319.572 21.6989V20.8636H325.538V21.6989H323.012V28.5H322.127V21.6989H319.572ZM328.294 27.2422L332.325 20.8636H333.384V28.5H332.499V22.1214L328.482 28.5H327.409V20.8636H328.294V27.2422Z" fill="black"/>
</svg>
