<?xml version="1.0" encoding="UTF-8"?> <svg xmlns="http://www.w3.org/2000/svg" width="200" height="99" viewBox="0 0 200 99" fill="none"> <g clip-path="url(#clip0_1_309)"> <path d="M177.165 65.5428C177.165 68.7147 177.165 71.8694 177.165 75.0414C177.165 75.5931 177.148 76.0586 177.923 76.0414C180.078 75.9724 182.268 76.1104 184.423 75.9035C187.612 75.5931 190.198 74.1451 191.542 71.0248C192.749 68.2322 192.818 65.2841 192.232 62.3191C191.404 58.1816 188.595 55.6131 184.457 55.2855C182.371 55.1131 180.268 55.1993 178.165 55.0959C177.32 55.0614 177.148 55.3717 177.148 56.1648C177.182 59.3023 177.148 62.4225 177.148 65.56M170.114 48.9589C170.114 48.9589 170.235 48.8897 170.252 48.8897C176.13 48.9416 182.061 48.2002 187.87 49.4069C193.783 50.6308 197.99 54.6476 199.283 60.9743C200.145 65.1979 199.938 69.3007 198.3 73.3002C196.645 77.3343 193.68 80.0062 189.629 81.2476C187.457 81.9198 185.129 82.2304 182.854 82.3336C178.871 82.506 174.855 82.3853 170.855 82.3853C170.631 82.3853 170.39 82.3508 170.08 82.3336V48.9416L170.114 48.9589Z" fill="white"></path> <path d="M108.057 64.5963C110.35 64.5963 112.505 64.5963 114.66 64.5963C115.229 64.5963 115.815 64.5963 116.366 64.4929C119.177 63.9414 120.607 62.2345 120.487 59.6143C120.383 57.1145 118.797 55.4595 115.97 55.2529C113.574 55.0632 111.16 55.1667 108.764 55.1147C108.23 55.1147 108.04 55.3218 108.057 55.8389C108.057 57.1492 108.057 58.4593 108.057 59.7694V64.6136V64.5963ZM130.365 82.3871C127.572 82.3871 125.038 82.3871 122.521 82.3697C122.28 82.3697 121.986 82.1113 121.814 81.8871C119.142 78.3876 116.487 74.8536 113.781 71.3713C113.487 70.992 112.867 70.6991 112.367 70.6471C111.264 70.5439 108.091 70.5956 108.091 70.5956C108.091 70.5956 108.057 70.8715 108.057 71.6126C108.091 74.7501 108.057 77.8703 108.057 81.008V82.3009H101.024V48.8915C101.3 48.857 101.541 48.8053 101.765 48.8053C106.609 48.8053 111.453 48.788 116.297 48.857C118.728 48.8915 121.038 49.5464 123.159 50.8223C126.038 52.5462 127.417 55.2009 127.641 58.4593C127.744 59.9074 127.641 61.4244 127.313 62.8552C126.624 65.9754 124.589 67.9924 121.745 69.2338C121.383 69.3887 121.021 69.5612 120.538 69.7853C123.779 73.957 126.986 78.0773 130.33 82.3871" fill="white"></path> <path d="M149.565 56.1152C147.806 60.7697 146.065 65.3899 144.29 70.0961H154.909C153.116 65.3899 151.357 60.7697 149.582 56.1152M166.855 82.3704C164.494 82.3704 162.253 82.3878 160.029 82.3531C159.787 82.3531 159.443 81.9568 159.322 81.6637C158.684 80.1122 158.081 78.5435 157.529 76.9573C157.322 76.354 157.029 76.1127 156.357 76.1127C151.875 76.1469 147.41 76.1469 142.928 76.1127C142.238 76.1127 141.911 76.3366 141.686 77.009C141.117 78.6122 140.445 80.1984 139.79 81.7841C139.687 82.0258 139.359 82.3531 139.135 82.3704C136.894 82.4221 134.67 82.3878 132.291 82.3878C133.05 80.4568 133.756 78.6469 134.48 76.8366C138.118 67.7862 141.79 58.7356 145.427 49.6678C145.686 49.0301 145.996 48.7885 146.686 48.8058C148.685 48.8405 150.685 48.8232 152.685 48.8058C153.202 48.8058 153.53 48.892 153.771 49.4609C158.063 60.2182 162.391 70.9582 166.7 81.6979C166.752 81.8533 166.787 82.0083 166.89 82.3531" fill="white"></path> <path d="M39.5025 82.4042H32.4517V48.9088C34.6236 48.9088 36.7441 48.9088 38.8648 48.926C39.0887 48.926 39.3473 49.2534 39.5197 49.4947C43.9156 55.7352 48.2944 61.9761 52.6903 68.2166C53.2248 68.9577 53.7592 69.6991 54.4144 70.6127V48.9432H61.396V82.4386C59.2586 82.4386 57.1381 82.4561 55.0176 82.4042C54.7763 82.4042 54.4832 82.0251 54.2935 81.7665C49.5873 75.0777 44.8809 68.389 40.1919 61.7002C40.0367 61.4589 39.8298 61.252 39.5025 60.8727V82.4042Z" fill="white"></path> <path d="M22.9305 48.9423H15.9487V82.3517H22.9305V48.9423Z" fill="white"></path> <path d="M93.783 64.0446C93.783 63.8032 93.7311 63.3892 93.2828 63.3892C93.0932 63.3892 92.9207 63.3892 92.7486 63.3892H91.8695C90.3007 63.3549 88.7145 63.3722 87.0596 63.3722H81.3536V69.8713H87.0423C87.0423 71.5607 87.0424 73.2329 87.0771 74.7844C87.0424 76.5945 86.3874 76.5945 85.2669 76.8186C84.4394 76.9738 83.4911 76.9738 82.1292 76.8703C79.2504 76.629 76.6127 75.6982 74.6476 73.388C72.9237 71.3713 72.4065 68.906 72.2341 66.3028C71.9237 61.3207 74.6302 57.1487 79.3021 55.6662C83.7669 54.2526 88.0423 54.9078 92.1623 57.011C92.3867 57.1315 92.6106 57.2177 92.9899 57.3901C92.9899 55.4076 92.9555 53.5802 93.0069 51.7529C93.0417 50.9945 92.8003 50.5979 92.0934 50.3395C87.5596 48.6154 82.9394 48.0292 78.1814 49.0982C74.6649 49.8913 71.5272 51.4255 69.1138 54.2009C65.0971 58.8209 64.3729 64.3375 65.4761 70.1126C66.7348 76.6979 70.9067 80.6975 77.2161 82.4214C82.6292 83.9039 89.2318 83.2832 93.0761 81.2145C93.369 81.094 93.7311 80.663 93.7311 80.3699C93.7658 75.2844 93.7658 69.1646 93.7311 64.0788" fill="white"></path> <path d="M61.3883 0L0 32.9267V98.2975H61.3883V91.3154H6.98184V37.0984L54.4067 11.6709V39.9947H61.3883V0Z" fill="white"></path> </g> <defs> <clipPath id="clip0_1_309"> <rect width="200" height="98.8506" fill="white"></rect> </clipPath> </defs> </svg> 