<?xml version="1.0" encoding="UTF-8"?> <svg xmlns="http://www.w3.org/2000/svg" width="200" height="44" viewBox="0 0 200 44" fill="none"> <g clip-path="url(#clip0_1_218)"> <path d="M44.7088 24.9217V2.12899H51.722C56.8566 2.12899 60.2379 6.63745 60.2379 13.5254C60.2379 20.4133 56.8566 24.9217 51.722 24.9217H44.7088ZM72.8867 43.4565L63.4941 26.9255H57.7332C61.1146 26.5498 63.995 25.2974 66.4997 23.2937C69.6306 20.6637 71.2586 17.4076 71.2586 13.6506C71.2586 9.76832 69.7558 6.63745 66.4997 4.00751C63.3688 1.25235 59.6118 0 54.9781 0H34.4396L22.417 31.3087L10.144 0H0V43.4565H2.5047V4.63369L17.7833 43.4565H20.6637L35.191 4.88416V43.4565H44.7088V27.0507H53.35L62.4922 43.4565H72.8867Z" fill="white"></path> <path d="M112.461 23.4189V12.0225H115.967C118.472 12.0225 120.225 14.2768 120.225 17.6581C120.225 21.0395 118.472 23.2937 115.967 23.2937H112.461V23.4189ZM126.487 32.6863L121.853 24.4208H118.973C120.726 24.1703 122.104 23.5441 123.356 22.5423C124.984 21.2899 125.736 19.6619 125.736 17.6581C125.736 15.7796 124.984 14.1515 123.356 12.8992C121.853 11.6468 119.85 10.8954 117.595 10.8954H107.702V32.5611H112.461V24.4208H116.719L121.227 32.5611H126.487V32.6863Z" fill="white"></path> <path d="M140.639 31.9349C142.643 31.9349 144.145 31.0582 145.272 29.1797C146.525 27.3012 147.026 24.9217 147.026 21.7909C147.026 18.66 146.4 16.2805 145.272 14.402C144.145 12.5235 142.517 11.6468 140.639 11.6468C138.635 11.6468 137.132 12.5235 135.88 14.402C134.753 16.2805 134.127 18.66 134.127 21.7909C134.127 24.9217 134.753 27.3012 135.88 29.1797C137.132 31.0582 138.635 31.9349 140.639 31.9349ZM140.639 32.8115C137.383 32.8115 134.628 31.8097 132.499 29.6807C130.37 27.5517 129.242 24.9217 129.242 21.7909C129.242 18.66 130.37 16.0301 132.499 13.9011C134.628 11.7721 137.383 10.7702 140.639 10.7702C143.895 10.7702 146.65 11.7721 148.779 13.9011C150.908 16.0301 152.035 18.66 152.035 21.7909C152.035 24.9217 150.908 27.5517 148.779 29.6807C146.65 31.8097 143.895 32.8115 140.639 32.8115Z" fill="white"></path> <path d="M172.573 11.0207C172.573 11.0207 172.573 26.1741 172.573 28.9292C171.446 30.5573 169.693 31.4339 167.314 31.4339C163.306 31.4339 160.801 28.804 160.801 24.546V11.0207H156.042V24.0451C156.042 26.675 156.919 28.804 158.798 30.4321C160.676 32.0601 163.056 32.8115 165.811 32.8115C168.566 32.8115 170.57 32.0601 172.198 30.5573C172.573 30.1816 172.824 29.8059 173.074 29.4302L176.456 32.561H177.207V11.0207H172.573Z" fill="white"></path> <path d="M190.232 23.4189C192.736 23.4189 194.49 21.1647 194.49 17.7833C194.49 14.402 192.736 12.1478 190.232 12.1478H186.725V23.5441H190.232V23.4189ZM191.86 11.0207C194.239 11.0207 196.118 11.6468 197.621 13.0244C199.249 14.2768 200 15.9048 200 17.7833C200 19.6619 199.249 21.2899 197.621 22.6675C196.118 23.9198 194.114 24.546 191.86 24.546H186.725V32.6863H181.966V11.0207H191.86Z" fill="white"></path> <path d="M98.3093 23.4189C98.3093 23.4189 98.3093 26.4246 98.3093 28.9293C97.8084 30.933 95.9298 32.0601 93.4252 32.0601C91.2962 32.0601 89.7933 31.1835 88.541 29.305C87.2886 27.4264 86.6625 25.1722 86.6625 22.0413C86.6625 15.4039 89.6681 11.7721 94.928 11.7721C96.8065 11.7721 98.1841 12.1478 99.3112 13.1497C100.564 14.0263 101.064 15.1534 101.064 16.531H101.941C101.941 14.903 101.064 13.2749 99.5617 12.273C98.1841 11.2711 96.0551 10.7702 93.6756 10.7702C90.2943 10.7702 87.4139 11.7721 85.1597 13.9011C82.9054 16.0301 81.7783 18.66 81.7783 21.7909C81.7783 24.9217 82.9054 27.5517 85.1597 29.6807C87.4139 31.8097 90.169 32.8115 93.4252 32.8115C96.3056 32.8115 98.685 31.8097 99.8121 30.3068L102.317 32.5611H103.068V23.2937H98.3093V23.4189Z" fill="white"></path> </g> <defs> <clipPath id="clip0_1_218"> <rect width="200" height="43.4565" fill="white"></rect> </clipPath> </defs> </svg> 