<svg width="101" height="27" viewBox="0 0 101 27" fill="none" xmlns="http://www.w3.org/2000/svg">
<path d="M16.9312 12.3771C16.5084 12.3895 16.0855 12.3552 15.6717 12.275C15.5495 12.2537 15.4346 12.2059 15.3366 12.1358C15.2386 12.0656 15.1604 11.975 15.1084 11.8716C14.9958 11.5874 14.94 11.2869 14.9437 10.9846L14.5238 1.59486C14.5106 1.03108 14.67 0.664146 15.0101 0.496472C15.5133 0.302193 16.0595 0.218946 16.6044 0.253465C16.6336 0.253465 16.6495 0.212154 16.6495 0.131962C16.6495 0.0517694 16.6336 0.0104583 16.6044 0.0104583C16.3387 0.0104583 16.0889 0.010455 15.8551 0.0298956C15.6212 0.0493361 15.3104 0.0517653 14.9277 0.0517653C14.7583 0.0527589 14.5888 0.0454592 14.4202 0.0298956C14.2714 0.0177452 14.1545 0.0104583 14.0881 0.0104583C13.9527 0.0179461 13.8242 0.0676943 13.7241 0.151399C13.5951 0.24998 13.4932 0.374818 13.4265 0.515909L8.47623 10.8704L3.51006 1.05053C3.36955 0.743814 3.19126 0.452754 2.97864 0.182991C2.9178 0.121776 2.84286 0.0736715 2.75923 0.0421542C2.6756 0.0106368 2.58537 -0.00350724 2.49504 0.000735963C2.40469 0.000735963 2.27184 0.000732701 2.09647 0.0201732C1.9211 0.0396138 1.72713 0.042043 1.52253 0.042043C1.36044 0.042043 1.15585 0.0420438 0.903421 0.0201732C0.650994 -0.00169737 0.419826 0.000735963 0.199284 0.000735963C0.167399 0.000735963 0.15411 0.0420471 0.15411 0.122239C0.15411 0.202432 0.167399 0.243743 0.199284 0.243743C0.53498 0.233887 0.8688 0.293195 1.17604 0.417284C1.48328 0.541373 1.75608 0.727061 1.97424 0.960608L1.76433 10.5181C1.75193 11.2066 1.61641 11.6877 1.35779 11.9615C1.09916 12.2353 0.660731 12.3738 0.0425069 12.3771C0.0132785 12.3771 0 12.416 0 12.4986C0 12.5812 0.0132785 12.6176 0.0425069 12.6176C0.337448 12.6176 0.64568 12.6176 0.969849 12.5982C1.29402 12.5788 1.63413 12.5788 1.98487 12.5788C2.39673 12.5788 2.78201 12.5788 3.12212 12.5982C3.46223 12.6176 3.80235 12.6176 4.12652 12.6176C4.15574 12.6176 4.17168 12.5788 4.17168 12.4986C4.17168 12.4184 4.15574 12.3771 4.12652 12.3771C3.38961 12.3771 2.89361 12.2386 2.63852 11.9615C2.38344 11.6845 2.26121 11.2033 2.27184 10.5181L2.44987 1.63617C2.44987 1.65075 2.46581 1.6629 2.47112 1.67748L7.85712 12.4767C7.87814 12.5065 7.90812 12.5302 7.94347 12.5448C7.97881 12.5595 8.01801 12.5645 8.0564 12.5593C8.16003 12.5593 8.21849 12.5302 8.23443 12.4767L13.3999 1.58757L13.7745 10.9846C13.8029 11.563 13.7143 11.9397 13.5088 12.1146C13.3033 12.2896 12.8286 12.3771 12.0846 12.3771C12.0554 12.3771 12.0394 12.416 12.0394 12.4986C12.0394 12.5812 12.0554 12.6176 12.0846 12.6176C12.3928 12.6176 12.7383 12.6176 13.1235 12.5982C13.5088 12.5788 13.9207 12.5788 14.3804 12.5788C14.84 12.5788 15.3263 12.5788 15.7594 12.5982C16.1925 12.6176 16.5884 12.6176 16.9418 12.6176C16.9844 12.6176 17.0083 12.5788 17.0083 12.4986C17.0083 12.4184 16.9737 12.3771 16.9312 12.3771Z" fill="#10172D"/>
<path d="M37.1612 12.3773C36.8456 12.3803 36.5343 12.3123 36.2571 12.1798C35.9232 11.9915 35.6442 11.7372 35.4426 11.4373C35.0943 10.9461 34.7858 10.434 34.5195 9.90483L29.2876 0.0601245C29.274 0.0196701 29.2333 0.000632741 29.1655 0.000632741C29.1372 -0.00172695 29.1087 0.00253957 29.083 0.012993C29.0572 0.0234464 29.0351 0.0397111 29.0188 0.0601245L24.3028 10.0048C24.0744 10.5147 23.7917 11.0047 23.4584 11.4683C23.2504 11.7659 22.9588 12.0117 22.6113 12.1822C22.2807 12.3191 21.9181 12.3868 21.5525 12.3797C21.4927 12.3797 21.4629 12.4178 21.4629 12.4987C21.4629 12.5796 21.4927 12.6153 21.5525 12.6153C22.0032 12.6153 22.3914 12.6153 22.7145 12.5772C23.0376 12.5391 23.4612 12.5367 23.9879 12.5367C24.558 12.5367 25.0332 12.551 25.4078 12.5772C25.7825 12.6034 26.1979 12.6153 26.6486 12.6153C26.7246 12.6153 26.7626 12.5772 26.7626 12.4987C26.7626 12.4201 26.7246 12.3797 26.6486 12.3797C25.6278 12.3797 24.9571 12.2155 24.6422 11.8847C24.3272 11.5539 24.3707 10.9876 24.7318 10.1856L28.8044 1.61881L33.7593 10.959C34.0453 11.5111 34.0797 11.8863 33.8625 12.0846C33.6453 12.2829 33.1149 12.3821 32.2715 12.3821C32.2117 12.3821 32.1819 12.4201 32.1819 12.501C32.1819 12.582 32.2117 12.6176 32.2715 12.6176C32.676 12.6176 33.0507 12.6177 33.3873 12.5796C33.724 12.5415 34.1286 12.5391 34.5955 12.5391C35.0001 12.5391 35.4263 12.5534 35.8689 12.5796C36.3114 12.6058 36.7458 12.6176 37.1667 12.6176C37.2264 12.6176 37.2563 12.5796 37.2563 12.501C37.2563 12.4225 37.221 12.3773 37.1612 12.3773Z" fill="#10172D"/>
<path d="M57.0382 0.00790315C56.7593 0.00790315 56.4512 0.00790435 56.1112 0.0397496C55.7713 0.0715949 55.4366 0.0691441 55.0967 0.0691441C54.7567 0.0691441 54.3955 0.0691453 54.0927 0.0397496C53.7899 0.010354 53.4951 0.00790315 53.2003 0.00790315C53.1711 0.00790315 53.1552 0.049547 53.1552 0.130385C53.1552 0.211223 53.1711 0.252867 53.2003 0.252867C53.8165 0.252867 54.2432 0.394944 54.4805 0.679102C54.7142 0.965709 54.8337 1.45319 54.8337 2.14889V11.0533L46.1169 1.06859C45.8808 0.814359 45.6735 0.538575 45.4981 0.245518C45.4699 0.170575 45.4161 0.106129 45.3447 0.0619301C45.2733 0.0177312 45.1882 -0.0038151 45.1023 0.000554539C45.0147 0.000554539 44.8766 0.000551249 44.6933 0.0201484C44.5101 0.0397455 44.3162 0.0421942 44.109 0.0421942C43.9018 0.0421942 43.6681 0.0421951 43.4025 0.0201484C43.1369 -0.00189839 42.8713 0.000554539 42.6323 0.000554539C42.5871 0.000554539 42.5659 0.0421984 42.5659 0.123036C42.5659 0.203875 42.5871 0.245518 42.6323 0.245518C43.0241 0.255888 43.4068 0.356969 43.7451 0.53947C43.914 0.628077 44.0732 0.731439 44.2206 0.848127V10.6026C44.2206 11.2966 44.1064 11.7817 43.8779 12.0577C43.6495 12.3337 43.2122 12.4733 42.5659 12.4766C42.534 12.4766 42.5208 12.5158 42.5208 12.599C42.5208 12.6823 42.5207 12.7191 42.5659 12.7191C42.8581 12.7191 43.1688 12.7191 43.4928 12.6995C43.8168 12.6799 44.1542 12.6799 44.5074 12.6799C44.8606 12.6799 45.2086 12.6799 45.5114 12.6995C45.8141 12.7191 46.101 12.7191 46.3825 12.7191C46.425 12.7191 46.4489 12.6799 46.4489 12.599C46.4489 12.5182 46.425 12.4766 46.3825 12.4766C45.7628 12.4766 45.329 12.3369 45.0811 12.0577C44.8332 11.7784 44.7075 11.2934 44.7039 10.6026V1.28416C44.8261 1.40419 44.9509 1.52912 45.0811 1.6761L55.0542 12.991C55.1047 13.003 55.1577 13.003 55.2082 12.991C55.2826 12.991 55.3171 12.9665 55.3171 12.9395V2.14644C55.3171 1.45319 55.4473 0.965707 55.7049 0.67665C55.9625 0.387592 56.4061 0.250415 57.0329 0.250415C57.078 0.250415 57.0993 0.208771 57.0993 0.127933C57.0993 0.047095 57.0833 0.00790315 57.0382 0.00790315Z" fill="#10172D"/>
<path d="M75.5642 1.96759C74.971 1.35798 74.2522 0.869592 73.4521 0.53245C72.5668 0.166713 71.6087 -0.0145685 70.6428 0.00091449C69.756 0.00424685 68.8752 0.139592 68.0328 0.401981C67.1577 0.666754 66.3389 1.07572 65.6142 1.61001C64.8729 2.15734 64.2685 2.85282 63.8443 3.64675C63.3814 4.5312 63.1518 5.50857 63.1752 6.49527C63.169 7.34962 63.331 8.19759 63.6528 8.99588C63.9614 9.76359 64.4217 10.4687 65.0089 11.0737C65.6039 11.6803 66.3269 12.1618 67.1312 12.4871C68.0063 12.8382 68.9492 13.0126 69.8997 12.9993C70.877 13.0073 71.8467 12.8359 72.7549 12.4943C73.6321 12.1659 74.4374 11.6867 75.1301 11.0809C75.8119 10.4849 76.3637 9.76837 76.7544 8.97173C77.1533 8.15408 77.3557 7.26292 77.3469 6.36239C77.3473 5.55998 77.1932 4.76419 76.8923 4.01398C76.5916 3.25799 76.1408 2.56339 75.5642 1.96759ZM75.2756 10.0251C74.8484 10.832 74.1819 11.5037 73.3577 11.958C72.535 12.3962 71.6047 12.6212 70.6607 12.6103C69.7951 12.6211 68.9385 12.4425 68.1579 12.0884C67.4092 11.7415 66.7474 11.2473 66.2169 10.6388C65.6599 9.9943 65.2354 9.25676 64.9655 8.46435C64.6702 7.61306 64.5236 6.72194 64.5313 5.82602C64.5313 4.16539 64.991 2.85428 65.9105 1.89269C66.8299 0.9311 68.1068 0.447882 69.7413 0.443049C70.8992 0.417579 72.0405 0.705964 73.0308 1.27417C73.965 1.83195 74.7174 2.62399 75.2041 3.56218C75.7366 4.61028 75.9992 5.76277 75.9703 6.92532C76.0087 7.9972 75.7684 9.06161 75.2705 10.0251H75.2756Z" fill="#10172D"/>
<path d="M97.9272 12.3782C97.2295 12.3529 96.5572 12.1282 96.0019 11.7349C95.1406 11.1256 94.3707 10.4123 93.7123 9.61378C92.8589 8.64636 91.8243 7.33389 90.6084 5.67637C90.9228 5.52016 91.2169 5.33109 91.4852 5.11284C91.8951 4.78305 92.2296 4.38005 92.4687 3.92775C92.7047 3.48848 92.8268 3.00391 92.8251 2.51288C92.8413 2.16249 92.7685 1.81348 92.6126 1.49413C92.4566 1.17478 92.2219 0.894081 91.9275 0.674781C91.3326 0.224928 90.4575 0 89.3023 0C88.9849 0 88.579 0.0217671 88.0821 0.0604641C87.5851 0.0991611 87.148 0.120928 86.7812 0.120928C86.3207 0.120928 85.8784 0.120929 85.4517 0.0919066C85.025 0.0628838 84.6477 0.0604641 84.3173 0.0604641C84.2731 0.0604641 84.2523 0.10158 84.2523 0.181392C84.2523 0.261205 84.2731 0.30232 84.3173 0.30232C84.7319 0.288752 85.1465 0.326159 85.5505 0.413572C85.6693 0.43626 85.7808 0.484357 85.8761 0.554045C85.9713 0.623733 86.0479 0.713097 86.0995 0.815055C86.2086 1.09446 86.2563 1.39133 86.24 1.68816V10.9924C86.2566 11.2932 86.2052 11.5939 86.0891 11.8751C86.0336 11.9787 85.9531 12.0688 85.8537 12.1385C85.7544 12.2082 85.639 12.2554 85.5167 12.2766C85.1079 12.3559 84.6905 12.39 84.2731 12.3782C84.2445 12.3782 84.2314 12.4169 84.2314 12.4991C84.2314 12.5814 84.2315 12.6176 84.2731 12.6176C84.6191 12.6176 85.0094 12.6176 85.4413 12.5983C85.8732 12.5789 86.3207 12.5789 86.7812 12.5789C87.2859 12.5789 87.7438 12.5789 88.1549 12.5983C88.566 12.6176 88.9355 12.6176 89.2893 12.6176C89.3309 12.6176 89.3543 12.579 89.3543 12.4991C89.3543 12.4193 89.3309 12.3782 89.2893 12.3782C88.8719 12.39 88.4544 12.3559 88.0457 12.2766C87.9252 12.2571 87.8119 12.2103 87.7156 12.1403C87.6194 12.0702 87.5433 11.9791 87.4941 11.8751C87.3943 11.5905 87.3502 11.2915 87.364 10.9924V1.72927C87.3427 1.38233 87.3903 1.03471 87.5045 0.703803C87.5435 0.611084 87.6063 0.528654 87.6875 0.463725C87.7687 0.398797 87.8658 0.353346 87.9702 0.331342C88.2476 0.279511 88.5303 0.25599 88.8132 0.261202C89.3055 0.252816 89.7933 0.349631 90.2389 0.544177C90.6721 0.744222 91.025 1.06801 91.2458 1.46807C91.5223 2.00612 91.6519 2.59923 91.6231 3.19492C91.6231 4.10752 91.3924 4.76779 90.931 5.17572C90.5131 5.50477 89.9941 5.70283 89.448 5.74167L89.6483 6.05366L89.6353 6.07784C90.572 7.39354 91.4219 8.53269 92.1851 9.49527C92.8097 10.304 93.4884 11.0754 94.2171 11.805C94.779 12.3468 95.1823 12.6176 95.4269 12.6176H97.935C97.9766 12.6176 98 12.579 98 12.4991C98 12.4193 97.9792 12.3782 97.9272 12.3782Z" fill="#10172D"/>
<path d="M29.3908 5.8206L31.498 7.81232C30.9791 7.72042 30.501 7.4815 30.1253 7.12643C29.7497 6.77136 29.4938 6.31648 29.3908 5.8206ZM29.157 5.35254C29.1594 5.70672 29.2346 6.05698 29.3784 6.38326C29.5222 6.70954 29.7318 7.00544 29.9951 7.25403C30.2584 7.50262 30.5702 7.69902 30.9128 7.83198C31.2555 7.96495 31.6221 8.03187 31.9917 8.02892L29.157 5.35254Z" fill="#10172D"/>
<path d="M28.9275 5.8162C28.8303 6.30642 28.5773 6.75827 28.2013 7.11336C27.8253 7.46846 27.3434 7.71051 26.818 7.80821L28.9275 5.8162ZM29.1569 5.35254L26.3223 8.02901C27.0794 8.02318 27.8032 7.73806 28.3346 7.23627C28.8661 6.73447 29.1618 6.05699 29.1569 5.35254Z" fill="#10172D"/>
<path d="M31.4964 7.93448L29.3889 10.4957C29.4853 9.86502 29.7378 9.28364 30.1136 8.82694C30.4894 8.37024 30.9712 8.0593 31.4964 7.93448ZM31.9917 7.6506C31.2352 7.65727 30.5119 8.02304 29.9804 8.66761C29.4489 9.31219 29.1528 10.1829 29.157 11.0886L31.9917 7.64746V7.6506Z" fill="#10172D"/>
<path d="M28.0257 8.89681C28.4896 9.32267 28.807 9.90953 28.9255 10.5603L26.8138 8.27765C27.2597 8.36591 27.6772 8.5792 28.0257 8.89681ZM28.1427 8.74274C27.6322 8.2757 26.987 8.02289 26.3223 8.02942L29.157 11.0881C29.1551 10.6383 29.0633 10.1943 28.8881 9.78759C28.7128 9.38087 28.4584 9.02128 28.1427 8.73417V8.74274Z" fill="#10172D"/>
<path d="M1.88636 25.0994C1.62311 25.0994 1.38258 25.0483 1.16477 24.946C0.94697 24.8419 0.773674 24.6922 0.644886 24.4972C0.516098 24.3002 0.451705 24.0616 0.451705 23.7812C0.451705 23.5653 0.492424 23.3835 0.573864 23.2358C0.655303 23.0881 0.770833 22.9669 0.920455 22.8722C1.07008 22.7775 1.24716 22.7027 1.4517 22.6477C1.65625 22.5928 1.88163 22.5502 2.12784 22.5199C2.37216 22.4896 2.5786 22.4631 2.74716 22.4403C2.91761 22.4176 3.04735 22.3816 3.13636 22.3324C3.22538 22.2831 3.26989 22.2036 3.26989 22.0938V21.9915C3.26989 21.6941 3.18087 21.4602 3.00284 21.2898C2.8267 21.1174 2.57292 21.0312 2.24148 21.0312C1.92708 21.0312 1.67045 21.1004 1.47159 21.2386C1.27462 21.3769 1.13636 21.5398 1.05682 21.7273L0.576705 21.554C0.675189 21.3153 0.811553 21.125 0.985795 20.983C1.16004 20.839 1.35511 20.7358 1.57102 20.6733C1.78693 20.6089 2.00568 20.5767 2.22727 20.5767C2.39394 20.5767 2.56723 20.5985 2.74716 20.642C2.92898 20.6856 3.09754 20.7614 3.25284 20.8693C3.40814 20.9754 3.53409 21.1241 3.63068 21.3153C3.72727 21.5047 3.77557 21.7453 3.77557 22.0369V25H3.26989V24.3097H3.23864C3.17803 24.4384 3.08807 24.5634 2.96875 24.6847C2.84943 24.8059 2.69981 24.9053 2.51989 24.983C2.33996 25.0606 2.12879 25.0994 1.88636 25.0994ZM1.95455 24.6364C2.22348 24.6364 2.45644 24.5767 2.65341 24.4574C2.85038 24.3381 3.00189 24.1799 3.10795 23.983C3.21591 23.7841 3.26989 23.5653 3.26989 23.3267V22.696C3.23201 22.732 3.16856 22.7642 3.07955 22.7926C2.99242 22.821 2.8911 22.8466 2.77557 22.8693C2.66193 22.8902 2.5483 22.9081 2.43466 22.9233C2.32102 22.9384 2.21875 22.9517 2.12784 22.9631C1.88163 22.9934 1.6714 23.0407 1.49716 23.1051C1.32292 23.1695 1.18939 23.2585 1.09659 23.3722C1.00379 23.4839 0.957386 23.6278 0.957386 23.804C0.957386 24.0691 1.05208 24.2746 1.24148 24.4205C1.43087 24.5644 1.66856 24.6364 1.95455 24.6364ZM7.71449 20.6364V21.1136H5.62642V25H5.12074V20.6364H7.71449ZM10.3146 25.0909C9.90743 25.0909 9.55516 24.9962 9.25781 24.8068C8.96046 24.6155 8.73035 24.3513 8.56747 24.0142C8.40649 23.6752 8.32599 23.285 8.32599 22.8438C8.32599 22.4044 8.40649 22.0142 8.56747 21.6733C8.73035 21.3305 8.95478 21.0625 9.24077 20.8693C9.52865 20.6742 9.86103 20.5767 10.2379 20.5767C10.4747 20.5767 10.7029 20.6203 10.9226 20.7074C11.1423 20.7926 11.3393 20.9242 11.5135 21.1023C11.6896 21.2784 11.8288 21.5009 11.9311 21.7699C12.0334 22.0369 12.0845 22.3532 12.0845 22.7188V22.9688H8.67543V22.5227H11.5675C11.5675 22.2424 11.5107 21.9905 11.397 21.767C11.2853 21.5417 11.129 21.3636 10.9283 21.233C10.7294 21.1023 10.4993 21.0369 10.2379 21.0369C9.96141 21.0369 9.71804 21.1108 9.50781 21.2585C9.29759 21.4062 9.13281 21.6013 9.01349 21.8438C8.89607 22.0862 8.83641 22.3513 8.83452 22.6392V22.9062C8.83452 23.2528 8.89418 23.5559 9.01349 23.8153C9.13471 24.0729 9.30611 24.2727 9.5277 24.4148C9.74929 24.5568 10.0116 24.6278 10.3146 24.6278C10.5211 24.6278 10.7019 24.5956 10.8572 24.5312C11.0144 24.4669 11.1461 24.3807 11.2521 24.2727C11.3601 24.1629 11.4415 24.0426 11.4964 23.9119L11.9766 24.0682C11.9103 24.2519 11.8014 24.4214 11.6499 24.5767C11.5002 24.732 11.3127 24.857 11.0874 24.9517C10.8639 25.0445 10.6063 25.0909 10.3146 25.0909ZM16.1449 22.5824V23.0597H13.5795V22.5824H16.1449ZM13.7045 20.6364V25H13.1989V20.6364H13.7045ZM16.517 20.6364V25H16.0114V20.6364H16.517ZM17.2521 21.1136V20.6364H20.6612V21.1136H19.218V25H18.7124V21.1136H17.2521ZM23.2081 25.0909C22.8179 25.0909 22.478 24.9934 22.1882 24.7983C21.9003 24.6032 21.6768 24.3362 21.5178 23.9972C21.3587 23.6581 21.2791 23.2718 21.2791 22.8381C21.2791 22.4006 21.3596 22.0114 21.5206 21.6705C21.6835 21.3295 21.9089 21.0625 22.1967 20.8693C22.4846 20.6742 22.8189 20.5767 23.1996 20.5767C23.4912 20.5767 23.7554 20.6335 23.9922 20.7472C24.2289 20.8589 24.424 21.017 24.5774 21.2216C24.7327 21.4242 24.8303 21.661 24.87 21.9318H24.3587C24.3056 21.6856 24.1778 21.4754 23.9751 21.3011C23.7744 21.125 23.5187 21.0369 23.2081 21.0369C22.9297 21.0369 22.6835 21.1127 22.4695 21.2642C22.2554 21.4138 22.0878 21.6231 21.9666 21.892C21.8473 22.1591 21.7876 22.4687 21.7876 22.821C21.7876 23.1752 21.8464 23.4886 21.9638 23.7614C22.0812 24.0322 22.246 24.2443 22.4581 24.3977C22.6721 24.5511 22.9221 24.6278 23.2081 24.6278C23.4013 24.6278 23.5774 24.5919 23.7365 24.5199C23.8975 24.446 24.032 24.3419 24.1399 24.2074C24.2498 24.0729 24.3236 23.9129 24.3615 23.7273H24.8729C24.835 23.9905 24.7412 24.2254 24.5916 24.4318C24.4439 24.6364 24.2517 24.7973 24.0149 24.9148C23.7801 25.0322 23.5111 25.0909 23.2081 25.0909ZM25.5959 21.1136V20.6364H29.005V21.1136H27.5618V25H27.0561V21.1136H25.5959ZM30.0739 25V20.6364H31.7926C32.2566 20.6364 32.6222 20.7367 32.8892 20.9375C33.1581 21.1383 33.2926 21.4091 33.2926 21.75C33.2926 22.0095 33.2178 22.2169 33.0682 22.3722C32.9186 22.5275 32.7178 22.6373 32.4659 22.7017C32.6345 22.7301 32.7907 22.7917 32.9347 22.8864C33.0805 22.9811 33.1989 23.1061 33.2898 23.2614C33.3807 23.4167 33.4261 23.6023 33.4261 23.8182C33.4261 24.0455 33.3693 24.2481 33.2557 24.4261C33.142 24.6042 32.982 24.7443 32.7756 24.8466C32.5691 24.9489 32.3248 25 32.0426 25H30.0739ZM30.5568 24.5312H32.0426C32.3097 24.5312 32.5208 24.4631 32.6761 24.3267C32.8314 24.1884 32.9091 24.0047 32.9091 23.7756C32.9091 23.5312 32.8352 23.3362 32.6875 23.1903C32.5417 23.0426 32.3456 22.9688 32.0994 22.9688H30.5568V24.5312ZM30.5568 22.5199H31.8239C32.0208 22.5199 32.1913 22.4896 32.3352 22.429C32.4792 22.3684 32.59 22.2831 32.6676 22.1733C32.7472 22.0616 32.786 21.9309 32.7841 21.7812C32.7841 21.5672 32.697 21.4015 32.5227 21.2841C32.3485 21.1648 32.1051 21.1051 31.7926 21.1051H30.5568V22.5199ZM36.2308 25.0909C35.8539 25.0909 35.5206 24.9953 35.2308 24.804C34.9429 24.6127 34.7176 24.3485 34.5547 24.0114C34.3918 23.6723 34.3104 23.2812 34.3104 22.8381C34.3104 22.3911 34.3918 21.9981 34.5547 21.6591C34.7176 21.3182 34.9429 21.053 35.2308 20.8636C35.5206 20.6723 35.8539 20.5767 36.2308 20.5767C36.6077 20.5767 36.9401 20.6723 37.228 20.8636C37.5159 21.0549 37.7412 21.3201 37.9041 21.6591C38.0689 21.9981 38.1513 22.3911 38.1513 22.8381C38.1513 23.2812 38.0698 23.6723 37.907 24.0114C37.7441 24.3485 37.5178 24.6127 37.228 24.804C36.9401 24.9953 36.6077 25.0909 36.2308 25.0909ZM36.2308 24.6278C36.5339 24.6278 36.7905 24.5464 37.0007 24.3835C37.2109 24.2206 37.37 24.0038 37.478 23.733C37.5878 23.4621 37.6428 23.1638 37.6428 22.8381C37.6428 22.5123 37.5878 22.2131 37.478 21.9403C37.37 21.6676 37.2109 21.4489 37.0007 21.2841C36.7905 21.1193 36.5339 21.0369 36.2308 21.0369C35.9297 21.0369 35.6731 21.1193 35.4609 21.2841C35.2507 21.4489 35.0907 21.6676 34.9808 21.9403C34.8729 22.2131 34.8189 22.5123 34.8189 22.8381C34.8189 23.1638 34.8729 23.4621 34.9808 23.733C35.0907 24.0038 35.2507 24.2206 35.4609 24.3835C35.6712 24.5464 35.9278 24.6278 36.2308 24.6278ZM44.4574 22.5824V23.0597H41.892V22.5824H44.4574ZM42.017 20.6364V25H41.5114V20.6364H42.017ZM44.8295 20.6364V25H44.3239V20.6364H44.8295ZM47.9396 25.0909C47.5324 25.0909 47.1802 24.9962 46.8828 24.8068C46.5855 24.6155 46.3554 24.3513 46.1925 24.0142C46.0315 23.6752 45.951 23.285 45.951 22.8438C45.951 22.4044 46.0315 22.0142 46.1925 21.6733C46.3554 21.3305 46.5798 21.0625 46.8658 20.8693C47.1536 20.6742 47.486 20.5767 47.8629 20.5767C48.0997 20.5767 48.3279 20.6203 48.5476 20.7074C48.7673 20.7926 48.9643 20.9242 49.1385 21.1023C49.3146 21.2784 49.4538 21.5009 49.5561 21.7699C49.6584 22.0369 49.7095 22.3532 49.7095 22.7188V22.9688H46.3004V22.5227H49.1925C49.1925 22.2424 49.1357 21.9905 49.022 21.767C48.9103 21.5417 48.754 21.3636 48.5533 21.233C48.3544 21.1023 48.1243 21.0369 47.8629 21.0369C47.5864 21.0369 47.343 21.1108 47.1328 21.2585C46.9226 21.4062 46.7578 21.6013 46.6385 21.8438C46.5211 22.0862 46.4614 22.3513 46.4595 22.6392V22.9062C46.4595 23.2528 46.5192 23.5559 46.6385 23.8153C46.7597 24.0729 46.9311 24.2727 47.1527 24.4148C47.3743 24.5568 47.6366 24.6278 47.9396 24.6278C48.1461 24.6278 48.3269 24.5956 48.4822 24.5312C48.6394 24.4669 48.7711 24.3807 48.8771 24.2727C48.9851 24.1629 49.0665 24.0426 49.1214 23.9119L49.6016 24.0682C49.5353 24.2519 49.4264 24.4214 49.2749 24.5767C49.1252 24.732 48.9377 24.857 48.7124 24.9517C48.4889 25.0445 48.2313 25.0909 47.9396 25.0909ZM50.3068 26.2415V24.5227H50.6847C50.7794 24.4167 50.8617 24.3021 50.9318 24.179C51.0019 24.0559 51.0625 23.9157 51.1136 23.7585C51.1667 23.5994 51.2112 23.4148 51.2472 23.2045C51.2831 22.9924 51.3134 22.7453 51.3381 22.4631L51.4972 20.6364H54.0795V24.5227H54.7273V26.2415H54.2216V25H50.8153V26.2415H50.3068ZM51.267 24.5227H53.5739V21.1136H51.9688L51.8381 22.4631C51.7926 22.9214 51.7282 23.321 51.6449 23.6619C51.5616 24.0028 51.4356 24.2898 51.267 24.5227ZM55.6911 25V20.6364H57.4098C57.8738 20.6364 58.2393 20.7367 58.5064 20.9375C58.7753 21.1383 58.9098 21.4091 58.9098 21.75C58.9098 22.0095 58.835 22.2169 58.6854 22.3722C58.5357 22.5275 58.335 22.6373 58.0831 22.7017C58.2517 22.7301 58.4079 22.7917 58.5518 22.8864C58.6977 22.9811 58.8161 23.1061 58.907 23.2614C58.9979 23.4167 59.0433 23.6023 59.0433 23.8182C59.0433 24.0455 58.9865 24.2481 58.8729 24.4261C58.7592 24.6042 58.5992 24.7443 58.3928 24.8466C58.1863 24.9489 57.942 25 57.6598 25H55.6911ZM56.174 24.5312H57.6598C57.9268 24.5312 58.138 24.4631 58.2933 24.3267C58.4486 24.1884 58.5263 24.0047 58.5263 23.7756C58.5263 23.5312 58.4524 23.3362 58.3047 23.1903C58.1589 23.0426 57.9628 22.9688 57.7166 22.9688H56.174V24.5312ZM56.174 22.5199H57.4411C57.638 22.5199 57.8085 22.4896 57.9524 22.429C58.0964 22.3684 58.2071 22.2831 58.2848 22.1733C58.3643 22.0616 58.4032 21.9309 58.4013 21.7812C58.4013 21.5672 58.3142 21.4015 58.1399 21.2841C57.9657 21.1648 57.7223 21.1051 57.4098 21.1051H56.174V22.5199ZM60.6577 24.2812L62.9616 20.6364H63.5668V25H63.0611V21.3551L60.7656 25H60.152V20.6364H60.6577V24.2812ZM64.6293 25L66.5554 22.7955L64.6548 20.6364H65.2713L66.9446 22.5767H67.2372V20.6364H67.7457V22.5767H68.0327L69.706 20.6364H70.3224L68.4276 22.7955L70.348 25H69.723L68.0241 23.054H67.7457V25H67.2372V23.054H66.9588L65.2543 25H64.6293ZM71.9155 24.2812L74.2195 20.6364H74.8246V25H74.3189V21.3551L72.0234 25H71.4098V20.6364H71.9155V24.2812ZM78.4411 24.2926L80.0803 20.6364H80.5717L78.6428 25H78.2393L76.3331 20.6364H76.8161L78.4411 24.2926ZM76.6655 20.6364V25H76.1598V20.6364H76.6655ZM80.2166 25V20.6364H80.7223V25H80.2166ZM83.7621 25.0909C83.3852 25.0909 83.0518 24.9953 82.7621 24.804C82.4742 24.6127 82.2488 24.3485 82.0859 24.0114C81.9231 23.6723 81.8416 23.2812 81.8416 22.8381C81.8416 22.3911 81.9231 21.9981 82.0859 21.6591C82.2488 21.3182 82.4742 21.053 82.7621 20.8636C83.0518 20.6723 83.3852 20.5767 83.7621 20.5767C84.139 20.5767 84.4714 20.6723 84.7592 20.8636C85.0471 21.0549 85.2725 21.3201 85.4354 21.6591C85.6001 21.9981 85.6825 22.3911 85.6825 22.8381C85.6825 23.2812 85.6011 23.6723 85.4382 24.0114C85.2753 24.3485 85.049 24.6127 84.7592 24.804C84.4714 24.9953 84.139 25.0909 83.7621 25.0909ZM83.7621 24.6278C84.0651 24.6278 84.3217 24.5464 84.532 24.3835C84.7422 24.2206 84.9013 24.0038 85.0092 23.733C85.1191 23.4621 85.174 23.1638 85.174 22.8381C85.174 22.5123 85.1191 22.2131 85.0092 21.9403C84.9013 21.6676 84.7422 21.4489 84.532 21.2841C84.3217 21.1193 84.0651 21.0369 83.7621 21.0369C83.4609 21.0369 83.2043 21.1193 82.9922 21.2841C82.782 21.4489 82.6219 21.6676 82.5121 21.9403C82.4041 22.2131 82.3501 22.5123 82.3501 22.8381C82.3501 23.1638 82.4041 23.4621 82.5121 23.733C82.6219 24.0038 82.782 24.2206 82.9922 24.3835C83.2024 24.5464 83.459 24.6278 83.7621 24.6278ZM88.4972 25.0909C88.107 25.0909 87.767 24.9934 87.4773 24.7983C87.1894 24.6032 86.9659 24.3362 86.8068 23.9972C86.6477 23.6581 86.5682 23.2718 86.5682 22.8381C86.5682 22.4006 86.6487 22.0114 86.8097 21.6705C86.9725 21.3295 87.1979 21.0625 87.4858 20.8693C87.7737 20.6742 88.108 20.5767 88.4886 20.5767C88.7803 20.5767 89.0445 20.6335 89.2812 20.7472C89.518 20.8589 89.7131 21.017 89.8665 21.2216C90.0218 21.4242 90.1193 21.661 90.1591 21.9318H89.6477C89.5947 21.6856 89.4669 21.4754 89.2642 21.3011C89.0634 21.125 88.8078 21.0369 88.4972 21.0369C88.2188 21.0369 87.9725 21.1127 87.7585 21.2642C87.5445 21.4138 87.3769 21.6231 87.2557 21.892C87.1364 22.1591 87.0767 22.4687 87.0767 22.821C87.0767 23.1752 87.1354 23.4886 87.2528 23.7614C87.3703 24.0322 87.535 24.2443 87.7472 24.3977C87.9612 24.5511 88.2112 24.6278 88.4972 24.6278C88.6903 24.6278 88.8665 24.5919 89.0256 24.5199C89.1866 24.446 89.321 24.3419 89.429 24.2074C89.5388 24.0729 89.6127 23.9129 89.6506 23.7273H90.1619C90.1241 23.9905 90.0303 24.2254 89.8807 24.4318C89.733 24.6364 89.5407 24.7973 89.304 24.9148C89.0691 25.0322 88.8002 25.0909 88.4972 25.0909ZM90.8849 21.1136V20.6364H94.294V21.1136H92.8509V25H92.3452V21.1136H90.8849ZM95.8686 24.2812L98.1726 20.6364H98.7777V25H98.272V21.3551L95.9766 25H95.3629V20.6364H95.8686V24.2812Z" fill="black"/>
</svg>
