<?xml version="1.0" encoding="UTF-8"?> <svg xmlns="http://www.w3.org/2000/svg" width="200" height="27" viewBox="0 0 200 27" fill="none"> <g clip-path="url(#clip0_1_225)"> <path d="M41.5153 26.5152H0.378906V0H41.5153V26.5152ZM2.91072 23.9902H38.985V2.52576H2.91072V23.9902ZM177.056 19.0098C176.546 18.4647 176.153 17.8199 175.903 17.116C175.653 16.412 175.551 15.6641 175.603 14.9189V6.66061H178.699V14.7288C178.626 15.5961 178.829 16.4641 179.277 17.2098C179.519 17.4808 179.821 17.6907 180.159 17.8223C180.498 17.954 180.862 18.0037 181.224 17.9674C181.593 18.0021 181.966 17.9519 182.313 17.8206C182.66 17.6893 182.973 17.4804 183.227 17.2098C183.711 16.4358 183.927 15.5243 183.844 14.6152V6.66061H186.939V14.8045C186.993 15.5652 186.889 16.3286 186.634 17.0473C186.379 17.766 185.979 18.4242 185.458 18.9811C184.285 20.0009 182.755 20.5148 181.205 20.4106C179.69 20.5108 178.199 20.0067 177.055 19.0091L177.056 19.0098ZM161.43 18.4697C160.794 17.8153 160.298 17.0392 159.97 16.188C159.642 15.3369 159.49 14.4283 159.521 13.5167V13.3652C159.491 12.448 159.65 11.5345 159.99 10.682C160.33 9.82962 160.843 9.05674 161.496 8.41212C162.157 7.7675 162.943 7.26324 163.804 6.9297C164.665 6.59617 165.585 6.44021 166.508 6.47121C167.431 6.43587 168.351 6.5852 169.215 6.91044C170.079 7.23567 170.869 7.73023 171.54 8.36515C172.19 9.00432 172.701 9.77258 173.038 10.6206C173.374 11.4686 173.53 12.3777 173.495 13.2894V13.4409C173.527 14.3648 173.372 15.2857 173.04 16.1481C172.706 17.0106 172.203 17.797 171.558 18.4598C170.17 19.7138 168.366 20.4088 166.496 20.4106C164.625 20.4124 162.82 19.7209 161.429 18.4697H161.43ZM163.736 10.0985C163.024 11.0267 162.668 12.1788 162.73 13.347V13.4985C162.668 14.6783 163.046 15.8392 163.791 16.7561C164.13 17.1505 164.554 17.4639 165.03 17.6736C165.507 17.8833 166.024 17.984 166.544 17.9682C167.064 17.9903 167.581 17.8914 168.055 17.6793C168.53 17.4673 168.949 17.1478 169.279 16.7462C169.99 15.8102 170.346 14.653 170.285 13.4795V13.328C170.343 12.1693 169.986 11.0279 169.279 10.1083C168.925 9.72697 168.496 9.42258 168.02 9.21409C167.543 9.00561 167.029 8.89758 166.508 8.89667C165.989 8.89568 165.474 9.00197 164.996 9.20871C164.519 9.41553 164.09 9.71841 163.734 10.0985H163.736ZM133.964 18.5076C133.346 17.837 132.867 17.0507 132.554 16.1942C132.241 15.3377 132.101 14.4277 132.141 13.5167V13.3652C132.102 12.4471 132.255 11.5311 132.588 10.675C132.922 9.81894 133.43 9.04136 134.079 8.39159C134.729 7.74182 135.506 7.23397 136.362 6.90015C137.218 6.56633 138.134 6.41383 139.052 6.45227C140.018 6.43823 140.98 6.59545 141.891 6.91667C142.78 7.24322 143.555 7.82038 144.123 8.57826C144.691 9.33614 145.027 10.2423 145.09 11.1871H142.033C141.781 9.64674 140.8 8.87674 139.09 8.87727C138.57 8.85318 138.05 8.95106 137.574 9.16311C137.098 9.37508 136.677 9.69538 136.347 10.0985C135.639 11.0499 135.286 12.2194 135.35 13.4038V13.5553C135.287 14.7205 135.615 15.8733 136.28 16.8318C136.624 17.2472 137.061 17.5741 137.556 17.785C138.052 17.996 138.591 18.0848 139.128 18.0439C139.565 18.078 140.004 18.0252 140.42 17.8886C140.836 17.7521 141.221 17.5345 141.552 17.2485C141.822 16.9773 142.036 16.6553 142.181 16.3011C142.326 15.947 142.399 15.5676 142.397 15.1848H139.34V12.95H145.434V14.3894C145.472 15.1976 145.342 16.0048 145.051 16.7598C144.76 17.5148 144.315 18.2008 143.744 18.7742C143.109 19.3433 142.368 19.7811 141.563 20.0622C140.758 20.3433 139.905 20.4623 139.055 20.4121C138.121 20.4671 137.185 20.3261 136.308 19.9981C135.432 19.6702 134.633 19.1624 133.964 18.5076ZM49.7463 18.5545C48.5108 17.1766 47.8725 15.3648 47.9713 13.5167V13.3652C47.9365 12.449 48.0876 11.5354 48.4156 10.6792C48.7436 9.82318 49.2416 9.04242 49.8797 8.38409C50.5088 7.74689 51.2626 7.24642 52.094 6.91401C52.9254 6.5816 53.8165 6.42441 54.7115 6.45227C56.2013 6.38903 57.6691 6.82936 58.8781 7.70227C59.4306 8.1475 59.8815 8.70568 60.2006 9.33939C60.5198 9.97303 60.7 10.6676 60.7289 11.3765H57.5774C57.5675 11.021 57.4845 10.6713 57.3333 10.3493C57.1822 10.0273 56.9662 9.74 56.6988 9.50538C56.4316 9.27068 56.1187 9.09371 55.7798 8.98553C55.441 8.87735 55.0835 8.84023 54.7297 8.87652C54.2384 8.85833 53.7499 8.95705 53.3042 9.16447C52.8585 9.37189 52.4685 9.68212 52.166 10.0697C51.485 11.0215 51.15 12.1777 51.2168 13.3462V13.4977C51.1451 14.661 51.4731 15.8138 52.1463 16.7652C52.4575 17.1505 52.8553 17.4569 53.3075 17.6592C53.7596 17.8616 54.2531 17.9542 54.7478 17.9295C55.5048 17.9628 56.2498 17.7319 56.8554 17.2765C57.43 16.7846 57.7907 16.0886 57.8615 15.3356H60.8804C60.8435 16.0603 60.6566 16.7695 60.3315 17.4182C60.0063 18.0669 59.5502 18.6411 58.9918 19.1045C57.7825 20.0124 56.2965 20.4739 54.7857 20.4106C53.8631 20.4686 52.9385 20.3334 52.0711 20.0138C51.2036 19.6942 50.4124 19.1972 49.7478 18.5545H49.7463ZM23.3653 18.5076C22.7474 17.837 22.2682 17.0507 21.9554 16.1942C21.6426 15.3377 21.5023 14.4277 21.5425 13.5167V13.3652C21.5039 12.447 21.6562 11.531 21.9899 10.6748C22.3236 9.81864 22.8313 9.04114 23.481 8.39129C24.1307 7.74152 24.9083 7.23369 25.7644 6.89992C26.6205 6.56614 27.5366 6.41371 28.4547 6.45227C29.4209 6.43823 30.3819 6.59545 31.2933 6.91667C32.182 7.24355 32.957 7.82076 33.5247 8.57856C34.0925 9.33636 34.4286 10.2424 34.4925 11.1871H31.435C31.1825 9.64674 30.2016 8.87674 28.4925 8.87727C27.9717 8.85326 27.4524 8.95114 26.976 9.16311C26.4997 9.37515 26.0794 9.69545 25.7486 10.0985C25.0406 11.05 24.6881 12.2195 24.7524 13.4038V13.5553C24.6897 14.7202 25.0168 15.8727 25.6819 16.8311C26.0249 17.2465 26.4627 17.5734 26.9584 17.7844C27.4541 17.9953 27.9932 18.0841 28.5304 18.0432C28.967 18.0772 29.406 18.0244 29.8221 17.8879C30.2381 17.7514 30.6231 17.5338 30.9547 17.2477C31.2246 16.9765 31.4381 16.6545 31.583 16.3003C31.7278 15.9461 31.8011 15.5667 31.7986 15.1841H28.7388V12.9492H34.8335V14.3886C34.8716 15.1967 34.7412 16.0037 34.4503 16.7586C34.1594 17.5133 33.7146 18.1993 33.1441 18.7727C32.5093 19.3418 31.7681 19.7796 30.9631 20.0607C30.1583 20.3418 29.3057 20.4608 28.4547 20.4106C27.5206 20.4657 26.5853 20.3248 25.7088 19.9971C24.8323 19.6694 24.0341 19.162 23.3653 18.5076ZM9.11527 18.5545C7.87974 17.1766 7.24137 15.3648 7.34027 13.5167V13.3652C7.30542 12.449 7.45654 11.5354 7.78451 10.6792C8.11254 9.82318 8.61057 9.04242 9.2486 8.38409C9.87769 7.74689 10.6316 7.24642 11.4629 6.91401C12.2944 6.5816 13.1854 6.42441 14.0804 6.45227C15.5703 6.38909 17.038 6.82941 18.2471 7.70227C18.7995 8.1475 19.2504 8.70568 19.5696 9.33939C19.8888 9.97303 20.0689 10.6676 20.0978 11.3765H16.9463C16.9365 11.021 16.8535 10.6713 16.7022 10.3493C16.5511 10.0273 16.3351 9.74 16.0678 9.50538C15.8005 9.27068 15.4876 9.09371 15.1488 8.98553C14.81 8.87735 14.4525 8.84023 14.0986 8.87652C13.6074 8.85833 13.1188 8.95705 12.6731 9.16447C12.2275 9.37189 11.8374 9.68212 11.535 10.0697C10.8536 11.0214 10.5187 12.1777 10.5857 13.3462V13.4977C10.5142 14.6608 10.8422 15.8133 11.5153 16.7644C11.8264 17.1498 12.2243 17.4562 12.6764 17.6586C13.1285 17.8609 13.6221 17.9536 14.1168 17.9288C14.8738 17.9619 15.6188 17.7311 16.2244 17.2758C16.7989 16.7839 17.1597 16.0879 17.2304 15.3348H20.2494C20.2123 16.0596 20.0253 16.7688 19.7 17.4175C19.3748 18.0663 18.9185 18.6405 18.36 19.1038C17.151 20.0116 15.6652 20.473 14.1547 20.4098C13.2319 20.468 12.3072 20.3331 11.4397 20.0136C10.5721 19.6942 9.78065 19.1973 9.11603 18.5545H9.11527ZM189.747 20.2023V6.66061H194.437C195.808 6.56963 197.167 6.95797 198.282 7.75909C198.738 8.15614 199.097 8.65341 199.329 9.21189C199.561 9.77045 199.661 10.3752 199.621 10.9788V11.0545C199.661 11.6493 199.559 12.245 199.325 12.7931C199.091 13.3411 198.73 13.8261 198.273 14.2083C197.184 14.9799 195.865 15.3575 194.533 15.2788H192.803V20.203L189.747 20.2023ZM192.803 13.1379H194.36C195.892 13.1379 196.658 12.4498 196.657 11.0735V10.9977C196.657 9.65932 195.891 8.99015 194.36 8.99015H192.803V13.1379ZM155.285 20.2023L152.038 14.975H150.708V20.2023H147.652V6.66061H152.512C153.874 6.58056 155.226 6.94245 156.366 7.69242C156.832 8.05265 157.202 8.52174 157.443 9.05848C157.685 9.59515 157.791 10.1831 157.752 10.7705V10.8462C157.796 11.6811 157.538 12.5038 157.026 13.1644C156.514 13.825 155.781 14.2794 154.961 14.4447L158.55 20.2023H155.285ZM150.709 12.8917H152.437C153.982 12.8917 154.754 12.2411 154.753 10.9402V10.8644C154.78 10.597 154.741 10.3273 154.64 10.0783C154.54 9.82924 154.38 9.60849 154.174 9.43485C153.654 9.11485 153.046 8.96598 152.437 9.00909H150.709V12.8917ZM117.995 20.2023V6.66061H121.071V17.797H126.596V20.2023H117.995ZM112.925 20.2023L111.995 17.1909H107.078L106.148 20.2023H103.261L107.727 6.66061H111.733L116.136 20.2023H112.925ZM107.742 15.0129H111.33L109.546 9.16061L107.742 15.0129ZM96.9759 20.2023V9.04697H93.3115V6.66061H103.736V9.04697H100.076V20.2023H96.9759ZM88.2236 20.2023V6.66061H91.3183V20.2023H88.2236ZM76.2615 20.2023V6.66061H80.9516C82.3221 6.56976 83.6812 6.95808 84.7963 7.75909C85.2524 8.15621 85.6107 8.65348 85.8433 9.21205C86.0751 9.77053 86.1751 10.3752 86.135 10.9788V11.0545C86.1744 11.6492 86.0721 12.2448 85.838 12.7928C85.6039 13.3408 85.2433 13.8258 84.7865 14.2083C83.6971 14.9801 82.3782 15.3577 81.0456 15.2788H79.3183V20.203L76.2615 20.2023ZM79.3191 13.1379H80.8759C82.4077 13.1379 83.1736 12.4498 83.1728 11.0735V10.9977C83.1728 9.65932 82.4069 8.99015 80.8759 8.99015H79.3183L79.3191 13.1379ZM71.1941 20.2023L70.2638 17.1909H65.3456L64.4153 20.2023H61.5289L65.991 6.66061H70.0001L74.4047 20.2023H71.1941ZM66.01 15.0129H69.5994L67.8145 9.15985L66.01 15.0129Z" fill="white"></path> </g> <defs> <clipPath id="clip0_1_225"> <rect width="200" height="26.5152" fill="white"></rect> </clipPath> </defs> </svg> 