<?xml version="1.0" encoding="UTF-8"?> <svg xmlns="http://www.w3.org/2000/svg" width="200" height="51" viewBox="0 0 200 51" fill="none"> <g clip-path="url(#clip0_1_173)"> <path d="M77.1871 25.9577H74.0996V41.2807H77.1871V25.9577Z" fill="white"></path> <path d="M98.685 36.1349C98.685 37.2785 97.7702 38.3076 96.5124 38.3076H85.4203C84.2768 38.3076 83.2476 37.3928 83.2476 36.1349V31.2178C83.2476 30.0743 84.1624 29.0452 85.4203 29.0452H96.5124C97.6559 29.0452 98.685 29.96 98.685 31.2178V36.1349ZM96.5124 25.9577H85.4203C82.5615 25.9577 80.1602 28.2447 80.1602 31.2178V36.1349C80.1602 38.9937 82.4472 41.3951 85.4203 41.3951H96.5124C99.3711 41.3951 101.773 39.1081 101.773 36.1349V31.2178C101.773 28.3591 99.4855 25.9577 96.5124 25.9577Z" fill="white"></path> <path d="M129.445 41.2807H150.943V38.1933H132.418V35.2201H150.943V32.1327H132.418V29.0452H150.943V25.9577H129.445V41.2807Z" fill="white"></path> <path d="M121.098 25.9577H104.86V41.2807H107.947V29.0452H121.098C122.241 29.0452 123.27 29.96 123.27 31.2178V41.3951H126.358V31.2178C126.358 28.3591 123.956 25.9577 121.098 25.9577Z" fill="white"></path> <path d="M153.917 41.2807H175.414V38.1933H157.004V35.2201H175.414V32.1327H157.004V29.0452H175.414V25.9577H153.917V41.2807Z" fill="white"></path> <path d="M68.0389 32.0183C68.0389 33.1618 67.1241 34.191 65.8663 34.191H52.6015V29.0452H65.7519C66.8954 29.0452 67.9246 29.96 67.9246 31.2178V32.0183H68.0389ZM65.8663 25.9577H49.6284V41.2807H52.6015V37.1641H65.7519C68.6107 37.1641 71.0121 34.8771 71.0121 31.9039V31.1035C71.0121 28.3591 68.725 25.9577 65.8663 25.9577Z" fill="white"></path> <path d="M181.589 34.191V29.0452H194.74C195.883 29.0452 196.912 29.96 196.912 31.2178V32.0183C196.912 33.1618 195.998 34.191 194.74 34.191H181.589ZM200 31.2178C200 28.3591 197.713 25.9577 194.74 25.9577H178.502V41.2807H181.589V37.1641H194.74C195.883 37.1641 196.912 38.0789 196.912 39.3368V41.2807H200V39.3368C200 37.8502 199.428 36.5923 198.513 35.6775C199.428 34.7627 200 33.3905 200 32.0183V31.2178Z" fill="white"></path> <path d="M3.08748 23.6707H0V44.8256H3.08748V23.6707Z" fill="white"></path> <path d="M9.37679 4.57404H6.28931V48.9422H9.37679V4.57404Z" fill="white"></path> <path d="M21.8411 4.57404H18.7537V47.57H21.8411V4.57404Z" fill="white"></path> <path d="M28.0159 9.03374H24.9285V44.8256H28.0159V9.03374Z" fill="white"></path> <path d="M15.5518 0H12.4644V50.2001H15.5518V0Z" fill="white"></path> </g> <defs> <clipPath id="clip0_1_173"> <rect width="200" height="50.2001" fill="white"></rect> </clipPath> </defs> </svg> 