<svg width="31" height="31" viewBox="0 0 31 31" fill="none" xmlns="http://www.w3.org/2000/svg">
<path fill-rule="evenodd" clip-rule="evenodd" d="M22.9161 18.5312C22.5365 18.3248 20.6606 17.3216 20.3102 17.1804C19.9599 17.0391 19.7007 16.9667 19.427 17.3397C19.1533 17.7164 18.3759 18.5565 18.1423 18.8028C17.9051 19.0527 17.6788 19.0744 17.2956 18.868C16.9161 18.6616 15.6788 18.2053 14.2445 16.84C13.1277 15.7752 12.3978 14.486 12.1861 14.0912C11.9745 13.6965 12.1861 13.4973 12.3869 13.3126C12.5693 13.146 12.792 12.8744 12.9964 12.6571C13.1971 12.4398 13.2701 12.2805 13.4088 12.0306C13.5474 11.7771 13.4927 11.5526 13.4015 11.3534C13.3102 11.1578 12.6058 9.23119 12.3139 8.44895C12.0182 7.66671 11.6898 7.78259 11.4635 7.77173C11.2372 7.76449 10.9781 7.72103 10.719 7.71378C10.4599 7.70292 10.0328 7.78622 9.66423 8.15561C9.29197 8.52862 8.25547 9.42313 8.18248 11.3208C8.10949 13.2185 9.43431 15.1016 9.61679 15.366C9.80292 15.6304 12.1423 19.7408 16.0328 21.432C19.9234 23.1232 19.9453 22.609 20.6569 22.5692C21.3723 22.5329 22.9891 21.7217 23.3504 20.8345C23.708 19.9472 23.7372 19.1758 23.646 19.0092C23.5547 18.8463 23.2993 18.7376 22.9197 18.5312H22.9161ZM15.781 0C7.37591 0 0.562044 6.76133 0.562044 15.1016C0.562044 17.9554 1.36131 20.6244 2.74453 22.8987L0 31L8.42701 28.3237C10.6058 29.5188 13.1131 30.2033 15.781 30.2033C24.1861 30.2033 31 23.4419 31 15.1016C31 6.76133 24.1861 0 15.781 0Z" fill="#10172D"/>
</svg>
